<svg width="1920" height="892" viewBox="0 0 1920 892" fill="none" xmlns="http://www.w3.org/2000/svg">
<g clip-path="url(#clip0_115_5649)">
<path d="M2122.35 0.0258179C2102.16 356.955 1763.99 727.581 1351.82 723.808C1110.89 721.586 1017.75 560.217 775.734 500.207C533.718 440.198 370.3 462.217 238.951 567.014C86.8932 688.325 -30.3063 891.69 -30.3063 891.69" stroke="#8B959E" stroke-miterlimit="10"/>
<path d="M2119.2 34.6566C2112.39 155.296 2065.21 245.129 1976.21 351.864C1906.78 435.107 1825.13 521.089 1732.41 588.852C1618.72 671.966 1477.51 719.234 1323.39 707.889C1089.58 690.651 994.486 541.403 761.171 481.471C607.487 441.361 485.795 435.417 383.985 463.483C329.038 478.576 279.644 503.593 234.07 538.353C81.9615 653.565 -35.8061 849.616 -35.8061 849.616" stroke="#8B959E" stroke-miterlimit="10"/>
<path d="M2116.05 69.2874C2109.68 181.863 2064.21 231.044 1964.41 330.517C1887.67 407.04 1804.66 499.148 1712.74 574.173C1602.1 664.471 1457.42 713.833 1294.91 691.969C1068.75 661.551 970.938 523.467 746.531 462.76C596.307 422.133 477.145 414.018 377.22 439.604C323.177 453.378 274.428 476.974 229.113 509.692C77.3138 619.322 -41.3575 807.568 -41.3575 807.568" stroke="#8B959E" stroke-miterlimit="10"/>
<path d="M2112.88 103.918C2106.97 208.456 2063.41 216.985 1952.61 309.196C1868.72 379.026 1784.18 477.103 1693.09 559.519C1585.47 656.873 1437.83 709 1266.48 676.075C1048.24 634.13 947.57 505.014 731.943 444.049C585.256 402.569 468.573 392.62 370.481 415.75C317.316 428.181 269.135 450.329 224.207 481.057C72.4853 584.82 -46.8831 765.546 -46.8831 765.546" stroke="#8B959E" stroke-miterlimit="10"/>
<path d="M2109.73 138.549C2104.28 235.05 2062.81 203.003 1940.84 287.875C1849.97 351.063 1763.66 454.955 1673.44 544.84C1568.76 649.12 1418.49 704.787 1238.03 660.155C1027.77 608.157 924.177 486.51 717.354 425.312C574.205 382.954 459.975 371.169 363.767 391.87C311.506 402.957 263.893 423.632 219.301 452.396C67.6052 550.267 -52.3829 723.472 -52.3829 723.472" stroke="#8B959E" stroke-miterlimit="10"/>
<path d="M2106.58 173.18C2101.57 261.643 2062.4 189.177 1929.04 266.527C1831.33 323.203 1743.08 432.678 1653.76 530.161C1551.98 641.263 1399.2 701.247 1209.57 644.235C1007.27 583.425 900.783 467.954 702.74 406.601C563.128 363.339 451.376 349.77 357.028 368.016C305.645 377.785 258.6 396.961 214.395 423.761C62.7251 515.74 -57.9085 681.45 -57.9085 681.45" stroke="#8B959E" stroke-miterlimit="10"/>
<path d="M2103.43 207.81C2098.88 288.236 2062.12 175.48 1917.26 245.206C1812.79 295.498 1722.45 410.374 1634.11 515.507C1535.12 633.329 1379.91 698.456 1181.14 628.341C986.611 559.726 877.442 449.373 688.151 387.89C552.102 343.697 442.778 328.372 350.289 344.162C299.81 352.587 253.281 370.29 209.463 395.126C57.7676 481.161 -63.4341 639.428 -63.4341 639.428" stroke="#8B959E" stroke-miterlimit="10"/>
<path d="M2100.28 242.415C2096.17 314.804 2061.91 161.938 1905.49 223.833C1794.33 267.846 1701.74 387.968 1614.46 500.776C1518.18 625.266 1360.42 696.336 1152.69 612.396C965.696 536.828 854.074 430.662 673.562 369.128C541.051 323.953 434.232 307.102 343.576 320.257C294 327.441 247.988 343.542 204.583 366.44C52.8359 446.504 -68.9339 597.329 -68.9339 597.329" stroke="#8B959E" stroke-miterlimit="10"/>
<path d="M2097.13 277.046C2093.49 341.371 2061.73 148.55 1893.69 202.512C1775.84 240.348 1680.93 365.535 1594.79 486.123C1501.14 617.228 1340.56 695.044 1124.23 596.502C944.524 514.628 830.732 411.951 658.948 350.442C530 304.26 425.608 285.729 336.836 296.429C288.165 302.295 242.669 316.845 199.652 337.831C47.8267 411.873 -74.4595 555.332 -74.4595 555.332" stroke="#8B959E" stroke-miterlimit="10"/>
<path d="M2093.95 311.677C2090.78 367.965 2061.52 135.344 1881.89 181.165C1757.38 212.927 1660.06 343.051 1575.14 471.443C1484.07 609.113 1320.32 694.501 1095.78 580.582C923.015 492.919 807.39 393.136 644.333 331.706C518.949 284.463 416.983 264.305 330.071 272.549C282.277 277.098 237.324 290.097 194.72 309.17C42.7917 377.139 -79.9851 513.284 -79.9851 513.284" stroke="#8B959E" stroke-miterlimit="10"/>
<path d="M2090.8 346.307C2088.06 394.558 2061.34 122.267 1870.11 159.844C1738.92 185.61 1639.15 320.567 1555.49 456.764C1466.9 600.973 1299.53 694.708 1067.35 564.662C901.222 471.624 784.126 374.27 629.771 312.995C507.975 264.641 408.437 242.88 323.384 248.695C276.494 251.9 232.031 263.375 189.866 280.535C37.7567 342.379 -85.5107 471.236 -85.5107 471.236" stroke="#8B959E" stroke-miterlimit="10"/>
<path d="M2087.65 380.938C2085.38 421.151 2061.11 109.294 1858.31 138.497C1720.38 158.371 1618.13 298.031 1535.81 442.085C1449.68 592.832 1278.1 695.639 1038.87 548.742C878.991 450.587 760.81 355.301 615.131 294.258C496.95 244.715 399.787 221.456 316.619 224.816C270.607 226.676 226.66 236.6 184.908 251.874C32.6958 307.542 -91.0363 429.189 -91.0363 429.189" stroke="#8B959E" stroke-miterlimit="10"/>
<path d="M2084.5 415.569C2082.69 447.744 2060.85 96.4234 1846.54 117.176C1701.87 131.183 1597.09 275.521 1516.16 427.431C1432.38 584.691 1256 697.292 1010.44 532.848C856.501 429.757 737.597 336.28 600.568 275.547C486.027 224.79 391.214 199.85 309.905 200.962C264.771 201.401 221.341 209.826 180.028 223.213C27.635 272.652 -96.5361 387.141 -96.5361 387.141" stroke="#8B959E" stroke-miterlimit="10"/>
<path d="M2081.35 450.2C2079.98 474.338 2060.51 83.6307 1834.77 95.829C1683.3 104.021 1575.99 252.985 1496.52 412.752C1415.05 576.524 1233.12 699.593 982.015 516.928C833.624 409.005 714.436 317.181 585.979 256.836C475.106 204.761 382.642 178.452 303.192 177.082C258.961 176.177 216.022 183 175.122 194.552C22.4967 237.686 -102.062 345.093 -102.062 345.093" stroke="#8B959E" stroke-miterlimit="10"/>
<path d="M2078.2 484.805C2077.3 500.879 2060.15 70.8638 1822.97 74.4819C1664.68 76.9113 1554.79 230.424 1476.84 398.047C1397.65 568.332 1209.44 702.435 953.535 501.009C810.334 388.278 691.275 297.979 571.339 238.099C464.209 184.603 373.992 157.027 296.427 153.202C253.1 150.954 210.651 156.174 170.19 165.892C17.4101 202.642 -107.587 303.045 -107.587 303.045" stroke="#8B959E" stroke-miterlimit="10"/>
<path d="M2075.03 519.435C2074.56 527.473 2059.71 58.1486 1811.17 53.1608C1646.02 49.8269 1533.57 207.888 1457.19 383.393C1380.22 560.217 1184.94 705.899 925.106 485.115C786.76 367.577 668.218 278.7 556.776 219.388C453.442 164.393 365.446 135.628 289.714 129.348C247.265 125.782 205.332 129.348 165.284 137.257C12.3234 167.494 -113.113 260.997 -113.113 260.997" stroke="#8B959E" stroke-miterlimit="10"/>
<path d="M2071.88 554.066C2071.88 554.066 2059.25 45.511 1799.37 31.8138C1627.32 22.7426 1512.29 185.352 1437.52 368.714C1362.74 552.076 1159.58 709.775 896.626 469.195C633.695 228.615 433.354 123.249 282.975 105.495C80.8512 81.6407 -118.638 218.949 -118.638 218.949" stroke="#8B959E" stroke-miterlimit="10"/>
</g>
<defs>
<clipPath id="clip0_115_5649">
<rect width="2242" height="892" fill="white" transform="translate(-119)"/>
</clipPath>
</defs>
</svg>
