<svg width="1920" height="761" viewBox="0 0 1920 761" fill="none" xmlns="http://www.w3.org/2000/svg">
<g clip-path="url(#clip0_119_6300)">
<path d="M1919.37 -111.975C1899.59 237.352 1568.36 600.084 1164.64 596.391C928.652 594.216 837.428 436.284 600.377 377.553C363.326 318.822 203.261 340.372 74.6065 442.936C-74.331 561.663 -189.126 760.696 -189.126 760.696" stroke="url(#paint0_linear_119_6300)" stroke-miterlimit="10"/>
<path d="M1916.28 -78.0816C1909.88 35.005 1867.07 117.841 1785.15 219.09C1721.09 298.283 1645.75 381.145 1560.82 448.501C1444.66 540.644 1297.82 603.018 1136.9 590.7C908.697 573.222 815.526 426.192 587.251 364.426C415.527 317.962 284.798 313.889 177.06 355.497C139.376 370.041 104.323 389.719 71.3188 414.683C-78.3521 527.062 -194.538 719.519 -194.538 719.519" stroke="url(#paint1_linear_119_6300)" stroke-miterlimit="10"/>
<path d="M1913.2 -44.1885C1907.23 61.3606 1865.8 104.713 1773.01 199.108C1701.49 271.852 1624.12 360.606 1540.01 435.222C1427.23 535.232 1277.84 608.81 1109.13 585.059C889.274 554.126 793.573 416.075 574.1 351.374C406.65 302.002 278.754 293.25 173.089 331.241C135.81 344.646 100.985 363.06 68.0057 386.456C-82.0446 492.992 -199.976 678.392 -199.976 678.392" stroke="url(#paint2_linear_119_6300)" stroke-miterlimit="10"/>
<path d="M1910.09 -10.2954C1904.55 87.7163 1864.76 91.6115 1760.84 179.101C1682.06 245.446 1602.45 339.942 1519.17 421.892C1409.73 529.566 1258.37 615.133 1081.36 579.369C870.178 536.699 771.62 405.805 560.948 338.247C397.746 285.94 272.683 272.51 169.118 306.934C132.218 319.201 97.5952 336.299 64.7171 358.203C-85.9401 458.593 -205.363 637.214 -205.363 637.214" stroke="url(#paint3_linear_119_6300)" stroke-miterlimit="10"/>
<path d="M1907 23.5977C1901.87 114.072 1863.96 78.5854 1748.71 159.119C1662.84 219.115 1580.72 319.201 1498.35 408.588C1392.18 523.799 1239.27 622.215 1053.61 573.703C851.185 520.84 749.719 395.435 547.822 325.17C388.869 269.828 266.614 251.82 165.172 282.652C128.652 293.756 94.2316 309.539 61.4295 329.976C-89.8601 424.219 -210.775 596.087 -210.775 596.087" stroke="url(#paint4_linear_119_6300)" stroke-miterlimit="10"/>
<path d="M1903.92 57.4908C1899.21 140.428 1863.32 65.7111 1736.59 139.112C1643.77 192.886 1558.97 298.359 1477.56 395.283C1374.55 517.931 1220.36 630.056 1025.87 568.037C832.167 506.271 727.792 384.989 534.696 312.068C379.993 253.641 260.544 231.054 161.227 258.371C125.061 268.311 90.8429 282.779 58.1672 301.749C-93.8052 389.82 -216.162 554.935 -216.162 554.935" stroke="url(#paint5_linear_119_6300)" stroke-miterlimit="10"/>
<path d="M1900.83 91.3839C1896.56 166.783 1862.79 52.9885 1724.45 119.131C1624.76 166.783 1537.12 277.467 1456.75 381.979C1356.82 511.936 1201.34 638.681 998.125 562.371C812.946 492.84 705.89 374.416 521.571 298.992C371.116 237.402 254.449 210.263 157.282 234.114C121.495 242.891 87.4541 256.044 54.8795 273.521C-97.8011 355.396 -221.574 513.808 -221.574 513.808" stroke="url(#paint6_linear_119_6300)" stroke-miterlimit="10"/>
<path d="M1897.74 125.252C1893.9 193.114 1862.36 40.3924 1712.31 99.0983C1605.81 140.782 1515.2 256.448 1435.93 368.624C1338.99 505.841 1182.12 648.141 970.381 556.655C793.497 480.244 684.013 363.692 508.445 285.839C362.239 221.012 248.329 189.396 153.337 209.757C117.904 217.345 84.0652 229.207 51.5918 245.218C-101.822 320.845 -226.986 472.58 -226.986 472.58" stroke="url(#paint7_linear_119_6300)" stroke-miterlimit="10"/>
<path d="M1894.66 159.145C1891.24 219.469 1861.96 27.9987 1700.17 79.1166C1586.87 114.907 1493.22 235.455 1415.12 355.345C1321.06 499.77 1162.49 658.511 942.612 551.015C773.695 468.432 662.137 352.917 495.294 272.788C353.387 204.622 242.184 168.579 149.366 185.526C114.288 191.925 80.6512 202.498 48.3042 217.041C-105.868 286.396 -232.373 431.504 -232.373 431.504" stroke="url(#paint8_linear_119_6300)" stroke-miterlimit="10"/>
<path d="M1891.55 193.038C1888.56 245.825 1861.53 15.7567 1688.01 59.1095C1567.9 89.1327 1471.11 214.385 1394.28 342.016C1303.03 493.599 1142.33 669.716 914.843 545.349C753.538 457.176 640.311 341.99 482.143 259.686C344.535 188.08 236.013 147.687 145.396 161.219C110.671 166.404 77.2116 175.661 44.9912 188.763C-109.966 251.769 -237.811 390.301 -237.811 390.301" stroke="url(#paint9_linear_119_6300)" stroke-miterlimit="10"/>
<path d="M1888.46 226.931C1885.91 272.181 1861.1 3.6412 1675.87 39.1278C1548.96 63.46 1448.98 193.341 1373.47 328.711C1284.95 487.427 1121.54 681.781 887.074 539.683C733.002 446.3 618.536 330.937 468.992 246.609C335.76 171.463 229.842 126.744 141.425 136.962C107.03 140.934 73.7975 148.901 41.7035 160.561C-114.063 217.193 -243.223 349.199 -243.223 349.199" stroke="url(#paint10_linear_119_6300)" stroke-miterlimit="10"/>
<path d="M1885.38 260.824C1883.25 298.511 1860.62 -8.37316 1663.73 19.1207C1529.96 37.8125 1426.78 172.221 1352.68 315.407C1266.84 481.256 1100 694.706 859.354 534.018C712.137 435.702 596.886 319.758 455.89 233.507C327.084 154.718 223.721 105.75 137.504 112.656C103.463 115.387 70.4078 122.065 38.4402 132.308C-118.16 182.516 -248.61 308.047 -248.61 308.047" stroke="url(#paint11_linear_119_6300)" stroke-miterlimit="10"/>
<path d="M1882.29 294.717C1880.57 324.867 1860.11 -20.3116 1651.59 -0.861025C1510.95 12.2409 1404.5 151.152 1331.86 302.103C1248.61 475.059 1077.56 708.415 831.611 528.352C690.842 425.307 575.314 308.477 442.764 220.43C318.485 137.873 217.575 84.757 133.559 88.3992C99.8717 89.8662 66.9937 95.279 35.1779 104.106C-122.283 147.763 -254.022 266.894 -254.022 266.894" stroke="url(#paint12_linear_119_6300)" stroke-miterlimit="10"/>
<path d="M1879.21 328.61C1877.92 351.222 1859.56 -32.1489 1639.45 -20.8428C1491.9 -13.2548 1382.19 130.057 1311.05 288.824C1230.35 468.912 1054.19 722.858 803.841 522.711C669.117 414.987 553.816 297.095 429.613 207.354C309.963 120.901 211.43 63.6876 129.589 64.1429C96.2553 64.3199 63.5543 68.4681 31.865 75.879C-126.405 112.959 -259.409 225.742 -259.409 225.742" stroke="url(#paint13_linear_119_6300)" stroke-miterlimit="10"/>
<path d="M1876.12 362.478C1875.26 377.553 1858.95 -43.9862 1627.31 -40.8751C1472.81 -38.8011 1359.81 108.912 1290.23 275.469C1212.01 462.665 1029.81 737.882 776.097 516.995C647.013 404.617 532.471 285.561 416.487 194.227C301.617 103.778 205.284 42.5171 125.643 39.8107C92.6641 38.6978 60.1402 41.5559 28.6025 47.601C-130.527 78.0795 -264.821 184.59 -264.821 184.59" stroke="url(#paint14_linear_119_6300)" stroke-miterlimit="10"/>
<path d="M1873.01 396.371C1872.58 403.908 1858.27 -55.7476 1615.15 -60.8569C1453.66 -64.2715 1337.35 87.8427 1269.39 262.164C1193.62 456.493 1004.4 753.513 748.328 511.329C624.479 394.221 511.252 273.977 403.336 181.125C293.397 86.5275 199.164 21.3465 121.673 15.529C89.0477 13.0756 56.7008 14.6944 25.2896 19.3736C-134.624 43.1241 -270.233 143.438 -270.233 143.438" stroke="url(#paint15_linear_119_6300)" stroke-miterlimit="10"/>
<path d="M1869.92 430.264C1869.92 430.264 1857.56 -67.4584 1603.01 -80.8639C1434.49 -89.7419 1314.89 66.7228 1248.58 248.86C1175.21 450.347 977.969 769.574 720.559 505.664C476.933 255.841 265.021 8.62396 117.728 -8.75257C-80.2488 -32.0983 -275.646 102.285 -275.646 102.285" stroke="url(#paint16_linear_119_6300)" stroke-miterlimit="10"/>
</g>
<defs>
<linearGradient id="paint0_linear_119_6300" x1="-167.045" y1="347.51" x2="1966.96" y2="326.547" gradientUnits="userSpaceOnUse">
<stop stop-color="#C2C2C2"/>
<stop offset="0.55" stop-color="#8B959E" stop-opacity="0.15"/>
<stop offset="1" stop-color="white"/>
</linearGradient>
<linearGradient id="paint1_linear_119_6300" x1="-172.432" y1="341.877" x2="1963.88" y2="318.89" gradientUnits="userSpaceOnUse">
<stop stop-color="#C2C2C2"/>
<stop offset="0.55" stop-color="#8B959E" stop-opacity="0.15"/>
<stop offset="1" stop-color="white"/>
</linearGradient>
<linearGradient id="paint2_linear_119_6300" x1="-177.845" y1="336.27" x2="1960.8" y2="310.84" gradientUnits="userSpaceOnUse">
<stop stop-color="#C2C2C2"/>
<stop offset="0.55" stop-color="#8B959E" stop-opacity="0.15"/>
<stop offset="1" stop-color="white"/>
</linearGradient>
<linearGradient id="paint3_linear_119_6300" x1="-183.209" y1="330.636" x2="1957.66" y2="302.198" gradientUnits="userSpaceOnUse">
<stop stop-color="#C2C2C2"/>
<stop offset="0.55" stop-color="#8B959E" stop-opacity="0.15"/>
<stop offset="1" stop-color="white"/>
</linearGradient>
<linearGradient id="paint4_linear_119_6300" x1="-188.597" y1="325.029" x2="1954.52" y2="292.796" gradientUnits="userSpaceOnUse">
<stop stop-color="#C2C2C2"/>
<stop offset="0.55" stop-color="#8B959E" stop-opacity="0.15"/>
<stop offset="1" stop-color="white"/>
</linearGradient>
<linearGradient id="paint5_linear_119_6300" x1="-193.96" y1="335.59" x2="1951.4" y2="300.577" gradientUnits="userSpaceOnUse">
<stop stop-color="#C2C2C2"/>
<stop offset="0.55" stop-color="#8B959E" stop-opacity="0.15"/>
<stop offset="1" stop-color="white"/>
</linearGradient>
<linearGradient id="paint6_linear_119_6300" x1="-199.347" y1="351.514" x2="1948.29" y2="314.003" gradientUnits="userSpaceOnUse">
<stop stop-color="#C2C2C2"/>
<stop offset="0.55" stop-color="#8B959E" stop-opacity="0.15"/>
<stop offset="1" stop-color="white"/>
</linearGradient>
<linearGradient id="paint7_linear_119_6300" x1="-204.735" y1="348.77" x2="1945.27" y2="311.643" gradientUnits="userSpaceOnUse">
<stop stop-color="#C2C2C2"/>
<stop offset="0.55" stop-color="#8B959E" stop-opacity="0.15"/>
<stop offset="1" stop-color="white"/>
</linearGradient>
<linearGradient id="paint8_linear_119_6300" x1="-210.098" y1="342.033" x2="1942.27" y2="305.96" gradientUnits="userSpaceOnUse">
<stop stop-color="#C2C2C2"/>
<stop offset="0.55" stop-color="#8B959E" stop-opacity="0.15"/>
<stop offset="1" stop-color="white"/>
</linearGradient>
<linearGradient id="paint9_linear_119_6300" x1="-215.511" y1="334.713" x2="1939.25" y2="299.767" gradientUnits="userSpaceOnUse">
<stop stop-color="#C2C2C2"/>
<stop offset="0.55" stop-color="#8B959E" stop-opacity="0.15"/>
<stop offset="1" stop-color="white"/>
</linearGradient>
<linearGradient id="paint10_linear_119_6300" x1="-220.898" y1="327.121" x2="1936.26" y2="293.321" gradientUnits="userSpaceOnUse">
<stop stop-color="#C2C2C2"/>
<stop offset="0.55" stop-color="#8B959E" stop-opacity="0.15"/>
<stop offset="1" stop-color="white"/>
</linearGradient>
<linearGradient id="paint11_linear_119_6300" x1="-226.262" y1="319.39" x2="1933.26" y2="286.724" gradientUnits="userSpaceOnUse">
<stop stop-color="#C2C2C2"/>
<stop offset="0.55" stop-color="#8B959E" stop-opacity="0.15"/>
<stop offset="1" stop-color="white"/>
</linearGradient>
<linearGradient id="paint12_linear_119_6300" x1="-231.65" y1="311.61" x2="1930.26" y2="280.049" gradientUnits="userSpaceOnUse">
<stop stop-color="#C2C2C2"/>
<stop offset="0.55" stop-color="#8B959E" stop-opacity="0.15"/>
<stop offset="1" stop-color="white"/>
</linearGradient>
<linearGradient id="paint13_linear_119_6300" x1="-237.012" y1="303.833" x2="1927.26" y2="273.338" gradientUnits="userSpaceOnUse">
<stop stop-color="#C2C2C2"/>
<stop offset="0.55" stop-color="#8B959E" stop-opacity="0.15"/>
<stop offset="1" stop-color="white"/>
</linearGradient>
<linearGradient id="paint14_linear_119_6300" x1="-242.4" y1="296.005" x2="1924.25" y2="266.53" gradientUnits="userSpaceOnUse">
<stop stop-color="#C2C2C2"/>
<stop offset="0.55" stop-color="#8B959E" stop-opacity="0.15"/>
<stop offset="1" stop-color="white"/>
</linearGradient>
<linearGradient id="paint15_linear_119_6300" x1="-247.788" y1="288.244" x2="1921.22" y2="259.741" gradientUnits="userSpaceOnUse">
<stop stop-color="#C2C2C2"/>
<stop offset="0.55" stop-color="#8B959E" stop-opacity="0.15"/>
<stop offset="1" stop-color="white"/>
</linearGradient>
<linearGradient id="paint16_linear_119_6300" x1="-253.176" y1="280.457" x2="1918.21" y2="252.882" gradientUnits="userSpaceOnUse">
<stop stop-color="#C2C2C2"/>
<stop offset="0.55" stop-color="#8B959E" stop-opacity="0.15"/>
<stop offset="1" stop-color="white"/>
</linearGradient>
<clipPath id="clip0_119_6300">
<rect width="2196" height="873" fill="white" transform="translate(-276 -112)"/>
</clipPath>
</defs>
</svg>
