<svg width="819" height="1391" viewBox="0 0 819 1391" fill="none" xmlns="http://www.w3.org/2000/svg">
<g clip-path="url(#clip0_118_6139)">
<path d="M0.153264 1323.97C0.153264 1323.97 550.813 1212.36 601.076 1034.23C626.822 942.992 8.23149 847.248 66.5726 754.571C129.673 654.336 746.48 998.844 789.565 626.823C817.886 382.299 357.758 94.1781 220.955 24.6275" stroke="url(#paint0_linear_118_6139)" stroke-width="0.77638" stroke-miterlimit="10"/>
<path d="M240.145 23.4075C371.475 90.177 819.218 377.498 787.482 621.068C740.182 984.115 140.037 654.791 77.8643 756.676C58.9053 787.746 113.904 819.127 194.482 851.022C353.654 914.026 610.645 977.141 596.119 1037.67C553.792 1216.49 32.8906 1326.64 32.8906 1326.64" stroke="url(#paint1_linear_118_6139)" stroke-width="0.77638" stroke-miterlimit="10"/>
<path d="M259.335 22.1883C385.192 86.1745 820.596 372.684 785.399 615.315C734.036 969.373 150.377 655.233 89.1589 758.781C70.8895 789.68 123.68 820.876 201.309 853.022C355.329 916.799 603.147 980.546 591.173 1041.11C556.784 1220.61 65.6376 1329.31 65.6376 1329.31" stroke="url(#paint2_linear_118_6139)" stroke-width="0.77638" stroke-miterlimit="10"/>
<path d="M278.524 20.9691C398.909 82.1741 822.033 367.853 783.317 609.559C728.044 954.623 160.691 655.66 100.451 760.885C82.8607 791.61 133.456 822.634 208.134 855.019C357.007 919.583 595.385 983.928 586.22 1044.55C558.982 1224.69 98.3818 1331.98 98.3818 1331.98" stroke="url(#paint3_linear_118_6139)" stroke-width="0.77638" stroke-miterlimit="10"/>
<path d="M297.715 19.7492C412.631 78.1708 823.529 363.012 781.235 603.803C722.212 939.863 170.978 656.076 111.747 762.988C94.8225 793.537 143.237 824.4 214.959 857.018C358.692 922.383 587.817 987.332 581.271 1047.99C561.755 1228.82 131.127 1334.65 131.127 1334.65" stroke="url(#paint4_linear_118_6139)" stroke-width="0.77638" stroke-miterlimit="10"/>
<path d="M316.905 18.5292C426.348 74.1697 825.084 358.155 779.153 598.048C716.535 925.101 181.236 656.483 123.038 765.094C106.766 795.46 153.014 826.175 221.784 859.017C360.377 925.203 580.255 990.738 576.318 1051.42C564.543 1232.95 163.867 1337.32 163.867 1337.32" stroke="url(#paint5_linear_118_6139)" stroke-width="0.77638" stroke-miterlimit="10"/>
<path d="M336.095 17.3092C440.065 70.1686 826.708 353.289 777.07 592.292C711.018 910.332 191.465 656.875 134.33 767.195C118.7 797.376 162.787 827.958 228.608 861.014C362.062 928.036 572.7 994.144 571.365 1054.86C567.36 1237.09 196.612 1339.99 196.612 1339.99" stroke="url(#paint6_linear_118_6139)" stroke-width="0.77638" stroke-miterlimit="10"/>
<path d="M355.285 16.0885C453.783 66.1645 828.407 348.414 774.988 586.537C705.664 895.563 201.663 657.259 145.625 769.3C130.624 799.294 172.561 829.754 235.433 863.012C363.747 930.89 565.155 997.553 566.416 1058.3C570.207 1241.25 229.356 1342.66 229.356 1342.66" stroke="url(#paint7_linear_118_6139)" stroke-width="0.77638" stroke-miterlimit="10"/>
<path d="M374.474 14.8685C467.499 62.1634 830.183 343.533 772.905 580.78C700.473 880.792 211.827 657.631 156.917 771.403C142.533 801.206 182.33 831.557 242.257 865.009C365.428 933.762 557.62 1000.96 561.462 1061.73C573.073 1245.4 262.096 1345.33 262.096 1345.33" stroke="url(#paint8_linear_118_6139)" stroke-width="0.77638" stroke-miterlimit="10"/>
<path d="M393.664 13.6493C481.217 58.1609 832.048 338.646 770.823 575.024C695.449 866.027 221.957 657.993 168.212 773.508C154.437 803.114 192.093 833.374 249.085 867.009C367.103 936.66 550.099 1004.38 556.516 1065.17C575.974 1249.55 294.844 1348 294.844 1348" stroke="url(#paint9_linear_118_6139)" stroke-width="0.77638" stroke-miterlimit="10"/>
<path d="M412.855 12.4293C494.938 54.1597 834.008 333.758 768.741 569.27C690.591 851.267 232.05 658.35 179.504 775.614C166.327 805.024 201.85 835.205 255.907 869.008C368.761 939.58 542.578 1007.79 551.56 1068.61C578.896 1253.71 327.585 1350.67 327.585 1350.67" stroke="url(#paint10_linear_118_6139)" stroke-width="0.77638" stroke-miterlimit="10"/>
<path d="M432.045 11.2094C508.655 50.1586 836.07 328.871 766.658 563.514C685.9 836.513 242.105 658.696 190.796 777.715C178.203 806.924 211.596 837.04 262.732 871.004C370.408 942.519 535.071 1011.2 546.607 1072.05C581.845 1257.87 360.326 1353.34 360.326 1353.34" stroke="url(#paint11_linear_118_6139)" stroke-width="0.77638" stroke-miterlimit="10"/>
<path d="M451.235 9.99015C522.372 46.1561 838.244 323.988 764.576 557.758C681.378 821.772 252.123 659.034 202.091 779.819C190.076 808.828 221.335 838.892 269.56 873.002C372.036 945.484 527.573 1014.61 541.661 1075.48C584.827 1262.02 393.074 1356.01 393.074 1356.01" stroke="url(#paint12_linear_118_6139)" stroke-width="0.77638" stroke-miterlimit="10"/>
<path d="M470.425 8.77018C536.09 42.1549 840.541 319.114 762.493 552.003C677.023 807.044 262.097 659.366 213.383 781.925C201.931 810.731 231.058 840.758 276.381 875.001C373.629 948.471 520.079 1018.02 536.705 1078.92C587.823 1266.18 425.811 1358.68 425.811 1358.68" stroke="url(#paint13_linear_118_6139)" stroke-width="0.77638" stroke-miterlimit="10"/>
<path d="M489.615 7.54869C549.807 38.1501 842.973 314.251 760.411 546.246C672.839 792.331 272.033 659.689 224.678 784.027C213.784 812.629 240.767 842.631 283.21 876.998C375.202 951.484 512.599 1021.43 531.759 1082.36C590.857 1270.33 458.562 1361.35 458.562 1361.35" stroke="url(#paint14_linear_118_6139)" stroke-width="0.77638" stroke-miterlimit="10"/>
<path d="M508.804 6.32948C563.524 34.1497 845.548 309.408 758.328 540.492C668.816 777.644 281.922 660.012 235.97 786.131C225.622 814.526 250.451 844.516 290.034 878.996C376.727 954.52 505.125 1024.84 526.805 1085.8C593.907 1274.47 491.303 1364.02 491.303 1364.02" stroke="url(#paint15_linear_118_6139)" stroke-width="0.77638" stroke-miterlimit="10"/>
<path d="M527.998 5.10954C577.248 30.1486 848.293 304.59 756.249 534.736C664.967 762.98 291.77 660.325 247.265 788.234C237.458 816.423 260.123 846.412 296.859 880.995C378.211 957.578 497.655 1028.24 521.852 1089.23C596.982 1278.6 524.043 1366.69 524.043 1366.69" stroke="url(#paint16_linear_118_6139)" stroke-width="0.77638" stroke-miterlimit="10"/>
<path d="M547.188 3.88957C590.966 26.1453 851.208 299.803 754.167 528.979C661.281 748.346 301.57 660.632 258.56 790.338C249.283 818.319 269.77 848.315 303.687 882.991C379.645 960.652 490.199 1031.64 516.906 1092.67C600.083 1282.73 556.795 1369.36 556.795 1369.36" stroke="url(#paint17_linear_118_6139)" stroke-width="0.77638" stroke-miterlimit="10"/>
<path d="M566.378 2.67036C604.683 22.145 854.319 295.058 752.085 523.225C657.755 733.75 311.32 660.939 269.852 792.444C261.094 820.217 279.388 850.23 310.511 884.993C381.017 963.75 482.746 1035.05 511.954 1096.11C603.202 1286.86 589.536 1372.03 589.536 1372.03" stroke="url(#paint18_linear_118_6139)" stroke-width="0.77638" stroke-miterlimit="10"/>
<path d="M585.568 1.45039C618.401 18.1417 857.645 290.362 750.003 517.469C654.393 719.191 321.019 661.242 281.148 794.548C272.903 822.113 288.985 852.146 317.337 886.99C382.326 966.857 475.296 1038.45 507.004 1099.55C606.341 1290.97 622.28 1374.7 622.28 1374.7" stroke="url(#paint19_linear_118_6139)" stroke-width="0.77638" stroke-miterlimit="10"/>
<path d="M604.758 0.228896C632.118 14.139 861.205 285.727 747.92 511.713C651.186 704.68 330.67 661.541 292.439 796.65C284.697 824.006 298.547 854.063 324.161 888.985C383.562 969.972 467.853 1041.84 502.051 1102.98C609.493 1295.08 655.021 1377.37 655.021 1377.37" stroke="url(#paint20_linear_118_6139)" stroke-width="0.77638" stroke-miterlimit="10"/>
<path d="M623.947 -0.991075C645.835 10.1379 865.033 281.169 745.837 505.957C648.131 690.221 340.266 661.838 303.731 798.753C296.488 825.9 308.079 855.984 330.985 890.984C384.72 973.093 460.413 1045.23 497.098 1106.42C612.662 1299.17 687.765 1380.04 687.765 1380.04" stroke="url(#paint21_linear_118_6139)" stroke-width="0.77638" stroke-miterlimit="10"/>
<path d="M643.138 -2.21028C659.556 6.13536 869.148 276.702 743.755 500.201C645.224 675.823 349.809 662.133 315.026 800.857C308.273 827.798 317.584 857.903 337.81 892.982C385.801 976.212 452.981 1048.62 492.149 1109.86C615.849 1303.26 720.509 1382.71 720.509 1382.71" stroke="url(#paint22_linear_118_6139)" stroke-width="0.77638" stroke-miterlimit="10"/>
<path d="M662.328 -3.43025C673.273 2.13424 873.588 272.348 741.673 494.447C642.455 661.499 359.297 662.431 326.318 802.963C320.044 829.694 327.055 859.817 344.635 894.983C386.803 979.328 445.694 1051.97 487.196 1113.3C619.508 1307.2 753.25 1385.38 753.25 1385.38" stroke="url(#paint23_linear_118_6139)" stroke-width="0.77638" stroke-miterlimit="10"/>
<path d="M681.518 -4.65022C686.99 -1.86907 878.381 268.127 739.59 488.69C639.815 647.249 368.727 662.727 337.613 805.067C331.814 831.591 336.499 861.722 351.463 896.98C387.723 982.424 438.2 1055.37 482.25 1116.73C622.501 1311.33 785.998 1388.05 785.998 1388.05" stroke="url(#paint24_linear_118_6139)" stroke-width="0.77638" stroke-miterlimit="10"/>
<path d="M700.708 -5.86867C700.708 -5.86867 883.575 264.071 737.508 482.935C618.998 660.511 278.148 669.945 358.284 898.978C484.842 1260.67 818.738 1390.72 818.738 1390.72" stroke="url(#paint25_linear_118_6139)" stroke-width="0.77638" stroke-miterlimit="10"/>
</g>
<defs>
<linearGradient id="paint0_linear_118_6139" x1="416.459" y1="38.2349" x2="407.672" y2="1353.36" gradientUnits="userSpaceOnUse">
<stop stop-color="#8B959E"/>
<stop offset="0.49" stop-color="#C2C2C2"/>
<stop offset="1" stop-color="white"/>
</linearGradient>
<linearGradient id="paint1_linear_118_6139" x1="431.049" y1="37.0557" x2="421.806" y2="1356.12" gradientUnits="userSpaceOnUse">
<stop stop-color="#8B959E"/>
<stop offset="0.49" stop-color="#C2C2C2"/>
<stop offset="1" stop-color="white"/>
</linearGradient>
<linearGradient id="paint2_linear_118_6139" x1="445.674" y1="35.8772" x2="435.933" y2="1358.87" gradientUnits="userSpaceOnUse">
<stop stop-color="#8B959E"/>
<stop offset="0.49" stop-color="#C2C2C2"/>
<stop offset="1" stop-color="white"/>
</linearGradient>
<linearGradient id="paint3_linear_118_6139" x1="459.652" y1="34.6987" x2="449.385" y2="1361.62" gradientUnits="userSpaceOnUse">
<stop stop-color="#8B959E"/>
<stop offset="0.49" stop-color="#C2C2C2"/>
<stop offset="1" stop-color="white"/>
</linearGradient>
<linearGradient id="paint4_linear_118_6139" x1="464.249" y1="33.5195" x2="453.723" y2="1364.37" gradientUnits="userSpaceOnUse">
<stop stop-color="#8B959E"/>
<stop offset="0.49" stop-color="#C2C2C2"/>
<stop offset="1" stop-color="white"/>
</linearGradient>
<linearGradient id="paint5_linear_118_6139" x1="468.882" y1="32.3403" x2="458.088" y2="1367.13" gradientUnits="userSpaceOnUse">
<stop stop-color="#8B959E"/>
<stop offset="0.49" stop-color="#C2C2C2"/>
<stop offset="1" stop-color="white"/>
</linearGradient>
<linearGradient id="paint6_linear_118_6139" x1="473.56" y1="31.1611" x2="462.489" y2="1369.88" gradientUnits="userSpaceOnUse">
<stop stop-color="#8B959E"/>
<stop offset="0.49" stop-color="#C2C2C2"/>
<stop offset="1" stop-color="white"/>
</linearGradient>
<linearGradient id="paint7_linear_118_6139" x1="478.287" y1="29.9811" x2="466.93" y2="1372.64" gradientUnits="userSpaceOnUse">
<stop stop-color="#8B959E"/>
<stop offset="0.49" stop-color="#C2C2C2"/>
<stop offset="1" stop-color="white"/>
</linearGradient>
<linearGradient id="paint8_linear_118_6139" x1="483.066" y1="28.8018" x2="471.412" y2="1375.39" gradientUnits="userSpaceOnUse">
<stop stop-color="#8B959E"/>
<stop offset="0.49" stop-color="#C2C2C2"/>
<stop offset="1" stop-color="white"/>
</linearGradient>
<linearGradient id="paint9_linear_118_6139" x1="487.907" y1="27.6234" x2="475.947" y2="1378.14" gradientUnits="userSpaceOnUse">
<stop stop-color="#8B959E"/>
<stop offset="0.49" stop-color="#C2C2C2"/>
<stop offset="1" stop-color="white"/>
</linearGradient>
<linearGradient id="paint10_linear_118_6139" x1="492.814" y1="26.4441" x2="480.537" y2="1380.89" gradientUnits="userSpaceOnUse">
<stop stop-color="#8B959E"/>
<stop offset="0.49" stop-color="#C2C2C2"/>
<stop offset="1" stop-color="white"/>
</linearGradient>
<linearGradient id="paint11_linear_118_6139" x1="497.793" y1="25.2649" x2="485.189" y2="1383.65" gradientUnits="userSpaceOnUse">
<stop stop-color="#8B959E"/>
<stop offset="0.49" stop-color="#C2C2C2"/>
<stop offset="1" stop-color="white"/>
</linearGradient>
<linearGradient id="paint12_linear_118_6139" x1="502.857" y1="24.0864" x2="489.916" y2="1386.4" gradientUnits="userSpaceOnUse">
<stop stop-color="#8B959E"/>
<stop offset="0.49" stop-color="#C2C2C2"/>
<stop offset="1" stop-color="white"/>
</linearGradient>
<linearGradient id="paint13_linear_118_6139" x1="508.011" y1="22.9072" x2="494.722" y2="1389.15" gradientUnits="userSpaceOnUse">
<stop stop-color="#8B959E"/>
<stop offset="0.49" stop-color="#C2C2C2"/>
<stop offset="1" stop-color="white"/>
</linearGradient>
<linearGradient id="paint14_linear_118_6139" x1="513.269" y1="21.7264" x2="499.623" y2="1391.9" gradientUnits="userSpaceOnUse">
<stop stop-color="#8B959E"/>
<stop offset="0.49" stop-color="#C2C2C2"/>
<stop offset="1" stop-color="white"/>
</linearGradient>
<linearGradient id="paint15_linear_118_6139" x1="518.637" y1="20.548" x2="504.625" y2="1394.65" gradientUnits="userSpaceOnUse">
<stop stop-color="#8B959E"/>
<stop offset="0.49" stop-color="#C2C2C2"/>
<stop offset="1" stop-color="white"/>
</linearGradient>
<linearGradient id="paint16_linear_118_6139" x1="524.138" y1="19.3688" x2="509.75" y2="1397.41" gradientUnits="userSpaceOnUse">
<stop stop-color="#8B959E"/>
<stop offset="0.49" stop-color="#C2C2C2"/>
<stop offset="1" stop-color="white"/>
</linearGradient>
<linearGradient id="paint17_linear_118_6139" x1="529.778" y1="18.1895" x2="515.005" y2="1400.15" gradientUnits="userSpaceOnUse">
<stop stop-color="#8B959E"/>
<stop offset="0.49" stop-color="#C2C2C2"/>
<stop offset="1" stop-color="white"/>
</linearGradient>
<linearGradient id="paint18_linear_118_6139" x1="535.572" y1="17.0111" x2="520.408" y2="1402.91" gradientUnits="userSpaceOnUse">
<stop stop-color="#8B959E"/>
<stop offset="0.49" stop-color="#C2C2C2"/>
<stop offset="1" stop-color="white"/>
</linearGradient>
<linearGradient id="paint19_linear_118_6139" x1="541.543" y1="15.8318" x2="525.981" y2="1405.66" gradientUnits="userSpaceOnUse">
<stop stop-color="#8B959E"/>
<stop offset="0.49" stop-color="#C2C2C2"/>
<stop offset="1" stop-color="white"/>
</linearGradient>
<linearGradient id="paint20_linear_118_6139" x1="547.702" y1="14.6511" x2="531.739" y2="1408.4" gradientUnits="userSpaceOnUse">
<stop stop-color="#8B959E"/>
<stop offset="0.49" stop-color="#C2C2C2"/>
<stop offset="1" stop-color="white"/>
</linearGradient>
<linearGradient id="paint21_linear_118_6139" x1="554.075" y1="13.4718" x2="537.709" y2="1411.15" gradientUnits="userSpaceOnUse">
<stop stop-color="#8B959E"/>
<stop offset="0.49" stop-color="#C2C2C2"/>
<stop offset="1" stop-color="white"/>
</linearGradient>
<linearGradient id="paint22_linear_118_6139" x1="560.681" y1="12.2934" x2="543.913" y2="1413.9" gradientUnits="userSpaceOnUse">
<stop stop-color="#8B959E"/>
<stop offset="0.49" stop-color="#C2C2C2"/>
<stop offset="1" stop-color="white"/>
</linearGradient>
<linearGradient id="paint23_linear_118_6139" x1="567.534" y1="11.1141" x2="550.37" y2="1416.65" gradientUnits="userSpaceOnUse">
<stop stop-color="#8B959E"/>
<stop offset="0.49" stop-color="#C2C2C2"/>
<stop offset="1" stop-color="white"/>
</linearGradient>
<linearGradient id="paint24_linear_118_6139" x1="574.651" y1="9.93489" x2="557.102" y2="1419.4" gradientUnits="userSpaceOnUse">
<stop stop-color="#8B959E"/>
<stop offset="0.49" stop-color="#C2C2C2"/>
<stop offset="1" stop-color="white"/>
</linearGradient>
<linearGradient id="paint25_linear_118_6139" x1="595.013" y1="8.75718" x2="578.028" y2="1422.18" gradientUnits="userSpaceOnUse">
<stop stop-color="#8B959E"/>
<stop offset="0.49" stop-color="#C2C2C2"/>
<stop offset="1" stop-color="white"/>
</linearGradient>
<clipPath id="clip0_118_6139">
<rect width="1397" height="819" fill="white" transform="matrix(-4.37114e-08 1 1 4.37114e-08 0 -6)"/>
</clipPath>
</defs>
</svg>
