<svg width="1920" height="170" viewBox="0 0 1920 170" fill="none" xmlns="http://www.w3.org/2000/svg">
<g opacity="0.2" clip-path="url(#clip0_115_5733)">
<path d="M2707.66 -24.728C2462.47 427.492 1971.83 662.668 1362.28 442.129C876.879 266.552 203.291 -239.661 -531.409 417.207" stroke="white" stroke-width="2" stroke-miterlimit="10"/>
<path d="M2723.75 -41.5909C2477.38 399.941 1990.28 637.299 1373.4 408.61C894.006 232.279 194.173 -245.645 -525.302 429.845" stroke="white" stroke-width="2" stroke-miterlimit="10"/>
<path d="M2739.8 -58.4523C2492.2 372.44 2009.23 610.508 1384.47 375.093C911.518 196.917 185.055 -251.629 -519.24 442.531" stroke="white" stroke-width="2" stroke-miterlimit="10"/>
<path d="M2755.9 -75.362C2507.11 344.842 2027.93 584.522 1395.64 341.574C928.818 162.216 175.938 -257.566 -513.132 455.216" stroke="white" stroke-width="2" stroke-miterlimit="10"/>
<path d="M2771.95 -92.2234C2521.98 317.293 2046.54 558.632 1406.72 308.057C946.074 127.612 166.82 -263.549 -507.023 467.9" stroke="white" stroke-width="2" stroke-miterlimit="10"/>
<path d="M2788.04 -109.086C2536.84 289.744 2065.16 532.883 1417.84 274.539C963.286 93.1017 157.749 -269.535 -500.963 480.54" stroke="white" stroke-width="2" stroke-miterlimit="10"/>
<path d="M2804.09 -125.994C2551.7 262.147 2083.73 507.182 1428.96 240.973C980.502 58.6853 148.631 -275.519 -494.855 493.224" stroke="white" stroke-width="2" stroke-miterlimit="10"/>
<path d="M2820.14 -142.856C2566.57 234.645 2102.25 481.623 1440.04 207.457C997.672 24.3173 139.513 -281.502 -488.746 505.909" stroke="white" stroke-width="2" stroke-miterlimit="10"/>
<path d="M2836.24 -159.719C2581.44 207.095 2120.74 456.206 1451.16 173.938C1014.85 -9.95715 130.395 -287.486 -482.685 518.595" stroke="white" stroke-width="2" stroke-miterlimit="10"/>
<path d="M2852.28 -176.627C2596.3 179.499 2139.18 430.79 1462.23 140.422C1031.93 -44.1818 121.277 -293.47 -476.577 531.279" stroke="white" stroke-width="2" stroke-miterlimit="10"/>
<path d="M2868.38 -193.49C2611.21 151.948 2157.62 405.561 1473.4 106.902C1049.06 -78.3612 112.159 -299.454 -470.47 543.917" stroke="white" stroke-width="2" stroke-miterlimit="10"/>
<path d="M2884.43 -210.351C2626.03 124.401 2175.93 380.431 1484.48 73.3851C1066.1 -112.444 103.087 -305.439 -464.408 556.603" stroke="white" stroke-width="2" stroke-miterlimit="10"/>
<path d="M2900.48 -227.259C2640.9 96.8511 2194.2 355.395 1495.55 39.8215C1083.14 -146.48 93.9696 -311.423 -458.299 569.288" stroke="white" stroke-width="2" stroke-miterlimit="10"/>
<path d="M2916.57 -244.122C2655.81 69.3003 2212.46 330.5 1506.72 6.30177C1100.13 -180.468 84.8529 -317.36 -452.191 581.972" stroke="white" stroke-width="2" stroke-miterlimit="10"/>
<path d="M2932.62 -260.984C2670.63 41.7524 2230.64 305.702 1517.8 -27.215C1117.08 -214.36 75.7352 -323.344 -446.129 594.659" stroke="white" stroke-width="2" stroke-miterlimit="10"/>
<path d="M2948.72 -277.893C2685.54 14.1547 2248.34 281.855 1528.92 -60.7801C1133.82 -247.778 66.617 -329.328 -440.023 607.296" stroke="white" stroke-width="2" stroke-miterlimit="10"/>
<path d="M2964.77 -294.755C2700.4 -13.3947 2266.78 256.486 1540.04 -94.2516C1150.94 -282.051 57.4989 -335.312 -433.961 619.982" stroke="white" stroke-width="2" stroke-miterlimit="10"/>
</g>
<defs>
<clipPath id="clip0_115_5733">
<rect width="3518" height="806" fill="white" transform="translate(-551.017 -182.396) rotate(-1.83732)"/>
</clipPath>
</defs>
</svg>
