<svg width="204" height="52" viewBox="0 0 204 52" fill="none" xmlns="http://www.w3.org/2000/svg">
<path d="M23.5184 43.3389C23.3229 41.9752 24.4929 40.9999 25.858 40.9999C27.028 40.9999 28.0033 41.9752 28.0033 43.3389C28.0033 44.5087 27.028 45.4844 25.858 45.4844C24.4933 45.6786 23.5184 44.7036 23.5184 43.3389ZM25.6633 40.2201C24.1034 40.2201 22.7383 41.5855 22.7383 43.3389C22.7383 44.8999 24.1038 46.2639 25.8584 46.2639C27.4186 46.2639 28.7834 44.8995 28.7834 43.1447C28.7834 41.5852 27.4186 40.2201 25.6633 40.2201Z" fill="#1C6787"/>
<path d="M23.5184 43.3389C23.3229 41.9752 24.4929 40.9999 25.858 40.9999C27.028 40.9999 28.0033 41.9752 28.0033 43.3389C28.0033 44.5087 27.028 45.4844 25.858 45.4844C24.4933 45.6786 23.5184 44.7036 23.5184 43.3389ZM25.6633 40.2201C24.1034 40.2201 22.7383 41.5855 22.7383 43.3389C22.7383 44.8999 24.1038 46.2639 25.8584 46.2639C27.4186 46.2639 28.7834 44.8995 28.7834 43.1447C28.7834 41.5852 27.4186 40.2201 25.6633 40.2201Z" fill="#1C6787"/>
<path d="M23.5184 43.3389C23.3229 41.9752 24.4929 40.9999 25.858 40.9999C27.028 40.9999 28.0033 41.9752 28.0033 43.3389C28.0033 44.5087 27.028 45.4844 25.858 45.4844C24.4933 45.6786 23.5184 44.7036 23.5184 43.3389ZM25.6633 40.2201C24.1034 40.2201 22.7383 41.5855 22.7383 43.3389C22.7383 44.8999 24.1038 46.2639 25.8584 46.2639C27.4186 46.2639 28.7834 44.8995 28.7834 43.1447C28.7834 41.5852 27.4186 40.2201 25.6633 40.2201Z" fill="#1C6787"/>
<path d="M19.9824 41.7006C20.5678 39.3612 22.1277 37.8016 24.6628 37.2171C26.223 37.0215 27.5881 37.4123 28.7581 37.9961C33.0482 40.1417 37.9234 37.4123 38.5084 32.7332C38.5084 31.9528 38.5084 31.1726 38.5084 30.3935C41.0431 32.5377 43.9688 32.7332 46.8935 30.9781C43.9688 42.2858 34.0235 48.5248 22.7127 47.7436C23.2977 48.1351 24.0778 48.3289 24.6628 48.3289C35.3879 48.9138 44.9437 41.7006 47.6732 31.3678C48.0635 30.1983 49.2335 28.6384 48.6485 28.2487C48.2586 28.0545 46.6984 32.3425 42.0184 31.3678C37.9234 30.5873 35.9732 26.4939 37.9234 22.3998C40.2634 17.7211 36.9481 12.6527 31.6831 12.6527C31.2929 12.6527 30.903 12.8476 30.3177 12.8476C32.4629 10.1185 32.658 7.38875 31.0978 4.26927C34.8032 5.24461 37.9234 6.99939 40.6529 9.53324C46.1137 14.7969 48.2586 21.0355 47.4781 28.4436C47.6732 28.2487 48.2586 27.0796 48.2586 26.4939C49.0387 16.1616 42.2131 6.80347 32.0727 3.87991L28.5627 2.31964C28.5627 2.31964 28.3672 2.31964 28.3672 2.5145L29.1473 3.29498C31.0974 4.8542 31.8779 6.99903 31.2925 9.33803C30.7079 11.8722 29.1473 13.4325 26.6122 14.0171C25.0523 14.4075 23.6875 14.0171 22.3217 13.238C17.6421 11.0932 11.9865 14.4078 12.7663 20.2567C12.7663 20.4509 12.7663 20.6461 12.7663 21.0358C10.0364 18.6965 7.30649 18.6965 4.18602 20.2567C5.55114 15.577 7.69637 11.8726 11.2064 8.94902C16.0818 4.65969 21.9318 3.09977 28.5623 3.68505C27.977 3.29569 27.392 2.90492 26.6118 2.90492C16.0825 2.31929 6.13719 9.53289 3.60208 20.0608C3.21219 20.8402 2.04184 22.7895 2.43208 22.9847C3.01708 23.1799 4.38219 19.0858 9.06184 19.8656C11.597 20.4502 13.1572 21.8149 13.7422 24.1546C14.3272 25.9087 13.9373 27.4696 13.1572 28.8333C11.2071 32.927 13.5474 37.6061 17.8375 38.3862C18.8124 38.5807 19.7873 38.3862 20.9577 38.3862C18.8124 41.116 18.4225 43.8447 20.1772 46.9642C16.6675 45.9892 13.5474 44.43 11.012 42.0899C5.35708 37.0215 3.01708 30.3932 3.60208 22.7895C3.21219 23.3744 3.01672 23.9597 2.82196 24.5443C2.23696 35.0729 9.25661 44.8193 19.5925 47.5498C20.7629 47.9384 22.7127 49.109 22.9078 48.7186C23.1025 48.1351 18.8124 46.7697 19.9824 41.7006ZM24.8579 30.0035C25.8328 33.1219 24.0778 36.6321 20.958 37.6061C16.0829 39.1656 11.7924 34.2921 13.5478 29.8079C14.3275 28.0535 15.1077 26.2987 14.523 23.9597L16.8627 25.5189L15.6927 26.4936L17.0578 26.2987C20.1775 25.1296 23.6879 26.6891 24.8579 30.0035ZM25.6377 29.8079C24.6628 27.8583 23.2973 26.4936 21.3475 25.5189C23.4924 24.7395 24.8575 23.3745 25.6377 21.4252C26.4174 23.3745 27.7829 24.934 29.9278 25.7141C27.7829 26.4936 26.4178 27.8583 25.6377 29.8079ZM15.1073 23.3745C12.9624 21.4252 12.767 18.1101 14.3272 15.7715C16.0825 13.4321 19.2023 12.4568 21.7378 13.8219C23.4924 14.602 25.2478 14.9917 27.1982 14.602L25.8328 16.9417L24.6628 15.7715L24.8579 16.7461C26.0279 19.4762 25.053 22.595 22.5179 24.1546C20.1775 25.7141 17.0574 25.5189 15.1073 23.3745ZM26.4178 21.23C24.2729 15.1862 32.073 10.5072 36.5579 15.3814C38.1181 17.3307 38.5084 19.4759 37.5331 21.8145C36.7534 23.5693 36.168 25.1296 36.7534 27.2737L34.2179 25.7141L35.583 24.7395L34.2179 24.934C31.0981 26.1042 27.5881 24.5443 26.4178 21.23ZM26.4178 34.487C25.2478 31.7572 26.223 28.8333 28.5634 27.0792C30.9034 25.5186 34.2179 25.9087 36.1684 27.8583C38.1181 30.0035 38.5087 33.3178 36.7537 35.6572C34.9987 37.9958 31.8786 38.7759 29.1484 37.4119C27.1986 36.4359 27.1986 36.4359 24.0785 36.6318L25.4432 34.2921L26.6136 35.4623L26.4178 34.487Z" fill="#1C6787"/>
<path d="M19.9824 41.7006C20.5678 39.3612 22.1277 37.8016 24.6628 37.2171C26.223 37.0215 27.5881 37.4123 28.7581 37.9961C33.0482 40.1417 37.9234 37.4123 38.5084 32.7332C38.5084 31.9528 38.5084 31.1726 38.5084 30.3935C41.0431 32.5377 43.9688 32.7332 46.8935 30.9781C43.9688 42.2858 34.0235 48.5248 22.7127 47.7436C23.2977 48.1351 24.0778 48.3289 24.6628 48.3289C35.3879 48.9138 44.9437 41.7006 47.6732 31.3678C48.0635 30.1983 49.2335 28.6384 48.6485 28.2487C48.2586 28.0545 46.6984 32.3425 42.0184 31.3678C37.9234 30.5873 35.9732 26.4939 37.9234 22.3998C40.2634 17.7211 36.9481 12.6527 31.6831 12.6527C31.2929 12.6527 30.903 12.8476 30.3177 12.8476C32.4629 10.1185 32.658 7.38875 31.0978 4.26927C34.8032 5.24461 37.9234 6.99939 40.6529 9.53324C46.1137 14.7969 48.2586 21.0355 47.4781 28.4436C47.6732 28.2487 48.2586 27.0796 48.2586 26.4939C49.0387 16.1616 42.2131 6.80347 32.0727 3.87991L28.5627 2.31964C28.5627 2.31964 28.3672 2.31964 28.3672 2.5145L29.1473 3.29498C31.0974 4.8542 31.8779 6.99903 31.2925 9.33803C30.7079 11.8722 29.1473 13.4325 26.6122 14.0171C25.0523 14.4075 23.6875 14.0171 22.3217 13.238C17.6421 11.0932 11.9865 14.4078 12.7663 20.2567C12.7663 20.4509 12.7663 20.6461 12.7663 21.0358C10.0364 18.6965 7.30649 18.6965 4.18602 20.2567C5.55114 15.577 7.69637 11.8726 11.2064 8.94902C16.0818 4.65969 21.9318 3.09977 28.5623 3.68505C27.977 3.29569 27.392 2.90492 26.6118 2.90492C16.0825 2.31929 6.13719 9.53289 3.60208 20.0608C3.21219 20.8402 2.04184 22.7895 2.43208 22.9847C3.01708 23.1799 4.38219 19.0858 9.06184 19.8656C11.597 20.4502 13.1572 21.8149 13.7422 24.1546C14.3272 25.9087 13.9373 27.4696 13.1572 28.8333C11.2071 32.927 13.5474 37.6061 17.8375 38.3862C18.8124 38.5807 19.7873 38.3862 20.9577 38.3862C18.8124 41.116 18.4225 43.8447 20.1772 46.9642C16.6675 45.9892 13.5474 44.43 11.012 42.0899C5.35708 37.0215 3.01708 30.3932 3.60208 22.7895C3.21219 23.3744 3.01672 23.9597 2.82196 24.5443C2.23696 35.0729 9.25661 44.8193 19.5925 47.5498C20.7629 47.9384 22.7127 49.109 22.9078 48.7186C23.1025 48.1351 18.8124 46.7697 19.9824 41.7006ZM24.8579 30.0035C25.8328 33.1219 24.0778 36.6321 20.958 37.6061C16.0829 39.1656 11.7924 34.2921 13.5478 29.8079C14.3275 28.0535 15.1077 26.2987 14.523 23.9597L16.8627 25.5189L15.6927 26.4936L17.0578 26.2987C20.1775 25.1296 23.6879 26.6891 24.8579 30.0035ZM25.6377 29.8079C24.6628 27.8583 23.2973 26.4936 21.3475 25.5189C23.4924 24.7395 24.8575 23.3745 25.6377 21.4252C26.4174 23.3745 27.7829 24.934 29.9278 25.7141C27.7829 26.4936 26.4178 27.8583 25.6377 29.8079ZM15.1073 23.3745C12.9624 21.4252 12.767 18.1101 14.3272 15.7715C16.0825 13.4321 19.2023 12.4568 21.7378 13.8219C23.4924 14.602 25.2478 14.9917 27.1982 14.602L25.8328 16.9417L24.6628 15.7715L24.8579 16.7461C26.0279 19.4762 25.053 22.595 22.5179 24.1546C20.1775 25.7141 17.0574 25.5189 15.1073 23.3745ZM26.4178 21.23C24.2729 15.1862 32.073 10.5072 36.5579 15.3814C38.1181 17.3307 38.5084 19.4759 37.5331 21.8145C36.7534 23.5693 36.168 25.1296 36.7534 27.2737L34.2179 25.7141L35.583 24.7395L34.2179 24.934C31.0981 26.1042 27.5881 24.5443 26.4178 21.23ZM26.4178 34.487C25.2478 31.7572 26.223 28.8333 28.5634 27.0792C30.9034 25.5186 34.2179 25.9087 36.1684 27.8583C38.1181 30.0035 38.5087 33.3178 36.7537 35.6572C34.9987 37.9958 31.8786 38.7759 29.1484 37.4119C27.1986 36.4359 27.1986 36.4359 24.0785 36.6318L25.4432 34.2921L26.6136 35.4623L26.4178 34.487Z" fill="#1C6787"/>
<path d="M16.8748 42.4142C12.1945 39.8793 8.87961 35.9804 7.31973 30.7161C7.31973 30.5209 6.92984 30.326 6.73438 29.9359C6.73438 34.6153 12.9746 42.2179 17.4595 43.1926C17.4595 42.9988 17.2647 42.608 16.8748 42.4142Z" fill="#1C6787"/>
<path d="M16.8748 42.4142C12.1945 39.8793 8.87961 35.9804 7.31973 30.7161C7.31973 30.5209 6.92984 30.326 6.73438 29.9359C6.73438 34.6153 12.9746 42.2179 17.4595 43.1926C17.4595 42.9988 17.2647 42.608 16.8748 42.4142Z" fill="#1C6787"/>
<path d="M16.8748 42.4142C12.1945 39.8793 8.87961 35.9804 7.31973 30.7161C7.31973 30.5209 6.92984 30.326 6.73438 29.9359C6.73438 34.6153 12.9746 42.2179 17.4595 43.1926C17.4595 42.9988 17.2647 42.608 16.8748 42.4142Z" fill="#1C6787"/>
<path d="M14.3555 31.9528C14.3555 34.487 16.5007 36.827 19.0355 36.827C21.7657 36.827 23.9109 34.6825 24.1057 31.9528C24.1057 29.2237 21.9608 27.0796 19.2302 27.0796C16.5004 27.0792 14.3555 29.2237 14.3555 31.9528ZM19.0355 36.0469C16.6958 36.0469 14.9405 34.0979 14.9405 31.759C15.1356 29.6134 16.8906 27.6631 19.2306 27.859C21.5709 27.859 23.3256 29.6134 23.3256 31.9528C23.3252 34.2921 21.3755 36.2421 19.0355 36.0469Z" fill="#1C6787"/>
<path d="M14.3555 31.9528C14.3555 34.487 16.5007 36.827 19.0355 36.827C21.7657 36.827 23.9109 34.6825 24.1057 31.9528C24.1057 29.2237 21.9608 27.0796 19.2302 27.0796C16.5004 27.0792 14.3555 29.2237 14.3555 31.9528ZM19.0355 36.0469C16.6958 36.0469 14.9405 34.0979 14.9405 31.759C15.1356 29.6134 16.8906 27.6631 19.2306 27.859C21.5709 27.859 23.3256 29.6134 23.3256 31.9528C23.3252 34.2921 21.3755 36.2421 19.0355 36.0469Z" fill="#1C6787"/>
<path d="M14.3555 31.9528C14.3555 34.487 16.5007 36.827 19.0355 36.827C21.7657 36.827 23.9109 34.6825 24.1057 31.9528C24.1057 29.2237 21.9608 27.0796 19.2302 27.0796C16.5004 27.0792 14.3555 29.2237 14.3555 31.9528ZM19.0355 36.0469C16.6958 36.0469 14.9405 34.0979 14.9405 31.759C15.1356 29.6134 16.8906 27.6631 19.2306 27.859C21.5709 27.859 23.3256 29.6134 23.3256 31.9528C23.3252 34.2921 21.3755 36.2421 19.0355 36.0469Z" fill="#1C6787"/>
<path d="M16.0703 31.7185C16.0703 33.4733 17.4351 34.8373 18.9953 34.8373C20.7507 34.8373 22.1154 33.6671 22.1154 31.9126C22.1154 30.1586 20.7507 28.7935 19.1908 28.7935C17.4351 28.7932 16.2654 30.1582 16.0703 31.7185ZM19.1908 34.252C17.8257 34.252 16.8501 33.0828 16.8501 31.9126C16.8501 30.5479 17.8253 29.5737 19.1908 29.5737C20.3608 29.5737 21.5304 30.5483 21.5304 31.9126C21.5304 33.0828 20.3608 34.252 19.1908 34.252Z" fill="#1C6787"/>
<path d="M16.0703 31.7185C16.0703 33.4733 17.4351 34.8373 18.9953 34.8373C20.7507 34.8373 22.1154 33.6671 22.1154 31.9126C22.1154 30.1586 20.7507 28.7935 19.1908 28.7935C17.4351 28.7932 16.2654 30.1582 16.0703 31.7185ZM19.1908 34.252C17.8257 34.252 16.8501 33.0828 16.8501 31.9126C16.8501 30.5479 17.8253 29.5737 19.1908 29.5737C20.3608 29.5737 21.5304 30.5483 21.5304 31.9126C21.5304 33.0828 20.3608 34.252 19.1908 34.252Z" fill="#1C6787"/>
<path d="M16.0703 31.7185C16.0703 33.4733 17.4351 34.8373 18.9953 34.8373C20.7507 34.8373 22.1154 33.6671 22.1154 31.9126C22.1154 30.1586 20.7507 28.7935 19.1908 28.7935C17.4351 28.7932 16.2654 30.1582 16.0703 31.7185ZM19.1908 34.252C17.8257 34.252 16.8501 33.0828 16.8501 31.9126C16.8501 30.5479 17.8253 29.5737 19.1908 29.5737C20.3608 29.5737 21.5304 30.5483 21.5304 31.9126C21.5304 33.0828 20.3608 34.252 19.1908 34.252Z" fill="#1C6787"/>
<path d="M8.1416 28.7418C9.70148 28.7418 11.0662 27.3775 11.0662 25.6227C11.0662 24.0631 9.70148 22.6988 8.1416 22.6988C6.38625 22.6988 5.2166 24.0631 5.02148 25.6227C5.02148 27.3775 6.3866 28.7418 8.1416 28.7418ZM10.4816 25.6227C10.4816 26.9871 9.50672 27.9624 8.14195 27.9624C6.77684 27.9624 5.8016 26.9871 5.8016 25.8176C5.8016 24.4532 6.77684 23.4789 7.94719 23.2834C9.3116 23.2834 10.2868 24.4532 10.4816 25.6227Z" fill="#1C6787"/>
<path d="M8.1416 28.7418C9.70148 28.7418 11.0662 27.3775 11.0662 25.6227C11.0662 24.0631 9.70148 22.6988 8.1416 22.6988C6.38625 22.6988 5.2166 24.0631 5.02148 25.6227C5.02148 27.3775 6.3866 28.7418 8.1416 28.7418ZM10.4816 25.6227C10.4816 26.9871 9.50672 27.9624 8.14195 27.9624C6.77684 27.9624 5.8016 26.9871 5.8016 25.8176C5.8016 24.4532 6.77684 23.4789 7.94719 23.2834C9.3116 23.2834 10.2868 24.4532 10.4816 25.6227Z" fill="#1C6787"/>
<path d="M8.1416 28.7418C9.70148 28.7418 11.0662 27.3775 11.0662 25.6227C11.0662 24.0631 9.70148 22.6988 8.1416 22.6988C6.38625 22.6988 5.2166 24.0631 5.02148 25.6227C5.02148 27.3775 6.3866 28.7418 8.1416 28.7418ZM10.4816 25.6227C10.4816 26.9871 9.50672 27.9624 8.14195 27.9624C6.77684 27.9624 5.8016 26.9871 5.8016 25.8176C5.8016 24.4532 6.77684 23.4789 7.94719 23.2834C9.3116 23.2834 10.2868 24.4532 10.4816 25.6227Z" fill="#1C6787"/>
<path d="M29.042 31.9084C28.8472 33.6621 30.212 35.0272 31.9673 35.0272C33.5272 35.0272 34.8927 33.8574 34.8927 32.1029C34.8927 30.3489 33.7223 28.9842 31.9673 28.9842C30.4074 28.9838 29.042 30.3485 29.042 31.9084ZM31.9673 34.246C30.797 34.4426 29.6273 33.2724 29.6273 32.1026C29.6273 30.7382 30.6022 29.7639 31.9673 29.7639C33.137 29.7639 34.3077 30.7386 34.3077 32.1026C34.3077 33.2728 33.3324 34.246 31.9673 34.246Z" fill="#1C6787"/>
<path d="M29.042 31.9084C28.8472 33.6621 30.212 35.0272 31.9673 35.0272C33.5272 35.0272 34.8927 33.8574 34.8927 32.1029C34.8927 30.3489 33.7223 28.9842 31.9673 28.9842C30.4074 28.9838 29.042 30.3485 29.042 31.9084ZM31.9673 34.246C30.797 34.4426 29.6273 33.2724 29.6273 32.1026C29.6273 30.7382 30.6022 29.7639 31.9673 29.7639C33.137 29.7639 34.3077 30.7386 34.3077 32.1026C34.3077 33.2728 33.3324 34.246 31.9673 34.246Z" fill="#1C6787"/>
<path d="M29.042 31.9084C28.8472 33.6621 30.212 35.0272 31.9673 35.0272C33.5272 35.0272 34.8927 33.8574 34.8927 32.1029C34.8927 30.3489 33.7223 28.9842 31.9673 28.9842C30.4074 28.9838 29.042 30.3485 29.042 31.9084ZM31.9673 34.246C30.797 34.4426 29.6273 33.2724 29.6273 32.1026C29.6273 30.7382 30.6022 29.7639 31.9673 29.7639C33.137 29.7639 34.3077 30.7386 34.3077 32.1026C34.3077 33.2728 33.3324 34.246 31.9673 34.246Z" fill="#1C6787"/>
<path d="M31.8048 36.2364C29.4645 36.2364 27.7098 34.4824 27.7098 32.1434C27.7098 29.8037 29.4645 27.8548 31.8048 27.8548C34.1448 27.8548 35.8998 29.8037 35.8998 32.1434C35.8998 34.4824 34.1448 36.2364 31.8048 36.2364ZM26.9297 32.1437C26.9297 34.8731 29.0749 37.0173 31.8048 37.0173C34.5347 37.0173 36.6803 34.8728 36.6803 32.1437C36.6803 29.414 34.5347 27.2698 31.8048 27.2698C29.0746 27.2695 26.9297 29.414 26.9297 32.1437Z" fill="#1C6787"/>
<path d="M31.8048 36.2364C29.4645 36.2364 27.7098 34.4824 27.7098 32.1434C27.7098 29.8037 29.4645 27.8548 31.8048 27.8548C34.1448 27.8548 35.8998 29.8037 35.8998 32.1434C35.8998 34.4824 34.1448 36.2364 31.8048 36.2364ZM26.9297 32.1437C26.9297 34.8731 29.0749 37.0173 31.8048 37.0173C34.5347 37.0173 36.6803 34.8728 36.6803 32.1437C36.6803 29.414 34.5347 27.2698 31.8048 27.2698C29.0746 27.2695 26.9297 29.414 26.9297 32.1437Z" fill="#1C6787"/>
<path d="M31.8048 36.2364C29.4645 36.2364 27.7098 34.4824 27.7098 32.1434C27.7098 29.8037 29.4645 27.8548 31.8048 27.8548C34.1448 27.8548 35.8998 29.8037 35.8998 32.1434C35.8998 34.4824 34.1448 36.2364 31.8048 36.2364ZM26.9297 32.1437C26.9297 34.8731 29.0749 37.0173 31.8048 37.0173C34.5347 37.0173 36.6803 34.8728 36.6803 32.1437C36.6803 29.414 34.5347 27.2698 31.8048 27.2698C29.0746 27.2695 26.9297 29.414 26.9297 32.1437Z" fill="#1C6787"/>
<path d="M42.457 34.3297C39.9219 39.2033 36.0217 42.3235 30.7567 43.8823C30.5616 44.0779 30.3668 44.2727 29.9766 44.6624C35.2416 44.0779 41.872 38.6183 43.4316 33.7444C43.0417 33.939 42.6518 33.9389 42.457 34.3297Z" fill="#1C6787"/>
<path d="M42.457 34.3297C39.9219 39.2033 36.0217 42.3235 30.7567 43.8823C30.5616 44.0779 30.3668 44.2727 29.9766 44.6624C35.2416 44.0779 41.872 38.6183 43.4316 33.7444C43.0417 33.939 42.6518 33.9389 42.457 34.3297Z" fill="#1C6787"/>
<path d="M42.457 34.3297C39.9219 39.2033 36.0217 42.3235 30.7567 43.8823C30.5616 44.0779 30.3668 44.2727 29.9766 44.6624C35.2416 44.0779 41.872 38.6183 43.4316 33.7444C43.0417 33.939 42.6518 33.9389 42.457 34.3297Z" fill="#1C6787"/>
<path d="M40.0742 25.451C40.0742 27.0106 41.439 28.3753 43.1936 28.3753C44.7539 28.3753 46.119 27.2058 46.119 25.451C46.119 23.697 44.7539 22.3319 43.1936 22.5271C41.439 22.5271 40.269 23.697 40.0742 25.451ZM43.1936 27.7914C41.8289 27.7914 40.854 26.6216 40.854 25.4514C40.854 24.086 41.8289 23.1121 43.1936 23.1121C44.3643 23.1121 45.534 24.0863 45.534 25.4514C45.5343 26.6216 44.3643 27.7914 43.1936 27.7914Z" fill="#1C6787"/>
<path d="M40.0742 25.451C40.0742 27.0106 41.439 28.3753 43.1936 28.3753C44.7539 28.3753 46.119 27.2058 46.119 25.451C46.119 23.697 44.7539 22.3319 43.1936 22.5271C41.439 22.5271 40.269 23.697 40.0742 25.451ZM43.1936 27.7914C41.8289 27.7914 40.854 26.6216 40.854 25.4514C40.854 24.086 41.8289 23.1121 43.1936 23.1121C44.3643 23.1121 45.534 24.0863 45.534 25.4514C45.5343 26.6216 44.3643 27.7914 43.1936 27.7914Z" fill="#1C6787"/>
<path d="M40.0742 25.451C40.0742 27.0106 41.439 28.3753 43.1936 28.3753C44.7539 28.3753 46.119 27.2058 46.119 25.451C46.119 23.697 44.7539 22.3319 43.1936 22.5271C41.439 22.5271 40.269 23.697 40.0742 25.451ZM43.1936 27.7914C41.8289 27.7914 40.854 26.6216 40.854 25.4514C40.854 24.086 41.8289 23.1121 43.1936 23.1121C44.3643 23.1121 45.534 24.0863 45.534 25.4514C45.5343 26.6216 44.3643 27.7914 43.1936 27.7914Z" fill="#1C6787"/>
<path d="M34.1811 8.81326C39.0562 11.3475 42.1759 15.2464 43.7358 20.5107C43.9309 20.7052 44.1257 21.0949 44.3215 21.2905L44.5159 21.0949C44.3215 16.4162 37.6907 8.42284 33.5957 8.03348C33.7908 8.42249 33.9859 8.61805 34.1811 8.81326Z" fill="#1C6787"/>
<path d="M34.1811 8.81326C39.0562 11.3475 42.1759 15.2464 43.7358 20.5107C43.9309 20.7052 44.1257 21.0949 44.3215 21.2905L44.5159 21.0949C44.3215 16.4162 37.6907 8.42284 33.5957 8.03348C33.7908 8.42249 33.9859 8.61805 34.1811 8.81326Z" fill="#1C6787"/>
<path d="M34.1811 8.81326C39.0562 11.3475 42.1759 15.2464 43.7358 20.5107C43.9309 20.7052 44.1257 21.0949 44.3215 21.2905L44.5159 21.0949C44.3215 16.4162 37.6907 8.42284 33.5957 8.03348C33.7908 8.42249 33.9859 8.61805 34.1811 8.81326Z" fill="#1C6787"/>
<path d="M25.4719 11.0302C27.0321 11.0302 28.592 9.66513 28.592 8.10556C28.592 6.35044 27.0321 4.98538 25.4719 4.98538C23.9116 4.98538 22.5469 6.35009 22.5469 7.91C22.5465 9.66513 23.7165 11.0302 25.4719 11.0302ZM27.8115 7.91C27.8115 9.27541 26.8363 10.2493 25.4715 10.4453C24.3015 10.4453 23.1315 9.27541 23.1315 8.10556C23.1315 6.74015 24.3015 5.76516 25.4715 5.76516C26.8363 5.76516 27.8115 6.74015 27.8115 7.91Z" fill="#1C6787"/>
<path d="M25.4719 11.0302C27.0321 11.0302 28.592 9.66513 28.592 8.10556C28.592 6.35044 27.0321 4.98538 25.4719 4.98538C23.9116 4.98538 22.5469 6.35009 22.5469 7.91C22.5465 9.66513 23.7165 11.0302 25.4719 11.0302ZM27.8115 7.91C27.8115 9.27541 26.8363 10.2493 25.4715 10.4453C24.3015 10.4453 23.1315 9.27541 23.1315 8.10556C23.1315 6.74015 24.3015 5.76516 25.4715 5.76516C26.8363 5.76516 27.8115 6.74015 27.8115 7.91Z" fill="#1C6787"/>
<path d="M25.4719 11.0302C27.0321 11.0302 28.592 9.66513 28.592 8.10556C28.592 6.35044 27.0321 4.98538 25.4719 4.98538C23.9116 4.98538 22.5469 6.35009 22.5469 7.91C22.5465 9.66513 23.7165 11.0302 25.4719 11.0302ZM27.8115 7.91C27.8115 9.27541 26.8363 10.2493 25.4715 10.4453C24.3015 10.4453 23.1315 9.27541 23.1315 8.10556C23.1315 6.74015 24.3015 5.76516 25.4715 5.76516C26.8363 5.76516 27.8115 6.74015 27.8115 7.91Z" fill="#1C6787"/>
<path d="M31.9943 14.5088C29.264 14.5088 27.1191 16.6536 27.1191 19.1885C27.1191 21.9176 29.264 24.0617 31.7991 24.0617C34.7241 24.0617 36.869 21.9172 36.869 19.1885C36.8694 16.6536 34.7245 14.5088 31.9943 14.5088ZM27.8993 19.1885C27.8993 17.043 29.6543 15.0934 31.9943 15.0934C34.3343 15.0934 36.0893 17.043 36.0893 19.1885C36.0893 21.5279 34.3343 23.4772 31.9943 23.4772C29.6543 23.4772 27.8993 21.5279 27.8993 19.1885Z" fill="#1C6787"/>
<path d="M31.9943 14.5088C29.264 14.5088 27.1191 16.6536 27.1191 19.1885C27.1191 21.9176 29.264 24.0617 31.7991 24.0617C34.7241 24.0617 36.869 21.9172 36.869 19.1885C36.8694 16.6536 34.7245 14.5088 31.9943 14.5088ZM27.8993 19.1885C27.8993 17.043 29.6543 15.0934 31.9943 15.0934C34.3343 15.0934 36.0893 17.043 36.0893 19.1885C36.0893 21.5279 34.3343 23.4772 31.9943 23.4772C29.6543 23.4772 27.8993 21.5279 27.8993 19.1885Z" fill="#1C6787"/>
<path d="M31.9943 14.5088C29.264 14.5088 27.1191 16.6536 27.1191 19.1885C27.1191 21.9176 29.264 24.0617 31.7991 24.0617C34.7241 24.0617 36.869 21.9172 36.869 19.1885C36.8694 16.6536 34.7245 14.5088 31.9943 14.5088ZM27.8993 19.1885C27.8993 17.043 29.6543 15.0934 31.9943 15.0934C34.3343 15.0934 36.0893 17.043 36.0893 19.1885C36.0893 21.5279 34.3343 23.4772 31.9943 23.4772C29.6543 23.4772 27.8993 21.5279 27.8993 19.1885Z" fill="#1C6787"/>
<path d="M32.1436 16.4134C30.3886 16.4134 29.0234 17.7781 29.0234 19.5325C29.2189 21.0917 30.5837 22.4568 32.1436 22.4568C33.8989 22.4568 35.0689 21.0914 35.0689 19.338C35.0686 17.7781 33.7038 16.4134 32.1436 16.4134ZM29.8036 19.5325C29.8036 18.1682 30.7784 17.1932 32.1432 17.1932C33.3136 16.9983 34.4836 18.1682 34.4836 19.5325C34.4836 20.702 33.3136 21.677 32.1432 21.677C30.7788 21.677 29.8036 20.702 29.8036 19.5325Z" fill="#1C6787"/>
<path d="M32.1436 16.4134C30.3886 16.4134 29.0234 17.7781 29.0234 19.5325C29.2189 21.0917 30.5837 22.4568 32.1436 22.4568C33.8989 22.4568 35.0689 21.0914 35.0689 19.338C35.0686 17.7781 33.7038 16.4134 32.1436 16.4134ZM29.8036 19.5325C29.8036 18.1682 30.7784 17.1932 32.1432 17.1932C33.3136 16.9983 34.4836 18.1682 34.4836 19.5325C34.4836 20.702 33.3136 21.677 32.1432 21.677C30.7788 21.677 29.8036 20.702 29.8036 19.5325Z" fill="#1C6787"/>
<path d="M32.1436 16.4134C30.3886 16.4134 29.0234 17.7781 29.0234 19.5325C29.2189 21.0917 30.5837 22.4568 32.1436 22.4568C33.8989 22.4568 35.0689 21.0914 35.0689 19.338C35.0686 17.7781 33.7038 16.4134 32.1436 16.4134ZM29.8036 19.5325C29.8036 18.1682 30.7784 17.1932 32.1432 17.1932C33.3136 16.9983 34.4836 18.1682 34.4836 19.5325C34.4836 20.702 33.3136 21.677 32.1432 21.677C30.7788 21.677 29.8036 20.702 29.8036 19.5325Z" fill="#1C6787"/>
<path d="M24.1137 19.1927C24.1137 16.4633 21.9688 14.3188 19.4333 14.3188C16.7034 14.3188 14.3638 16.4637 14.5582 19.1927C14.5582 21.7266 16.7034 23.8711 19.2385 23.8711C21.9688 23.8711 24.1137 21.9218 24.1137 19.1927ZM19.4333 14.9034C21.5785 14.9034 23.5287 16.8531 23.5287 19.1927C23.5287 21.3369 21.5785 23.2858 19.4333 23.2858C17.0933 23.2858 15.1432 21.3369 15.1432 19.1927C15.1435 16.8531 17.0933 14.9034 19.4333 14.9034Z" fill="#1C6787"/>
<path d="M24.1137 19.1927C24.1137 16.4633 21.9688 14.3188 19.4333 14.3188C16.7034 14.3188 14.3638 16.4637 14.5582 19.1927C14.5582 21.7266 16.7034 23.8711 19.2385 23.8711C21.9688 23.8711 24.1137 21.9218 24.1137 19.1927ZM19.4333 14.9034C21.5785 14.9034 23.5287 16.8531 23.5287 19.1927C23.5287 21.3369 21.5785 23.2858 19.4333 23.2858C17.0933 23.2858 15.1432 21.3369 15.1432 19.1927C15.1435 16.8531 17.0933 14.9034 19.4333 14.9034Z" fill="#1C6787"/>
<path d="M24.1137 19.1927C24.1137 16.4633 21.9688 14.3188 19.4333 14.3188C16.7034 14.3188 14.3638 16.4637 14.5582 19.1927C14.5582 21.7266 16.7034 23.8711 19.2385 23.8711C21.9688 23.8711 24.1137 21.9218 24.1137 19.1927ZM19.4333 14.9034C21.5785 14.9034 23.5287 16.8531 23.5287 19.1927C23.5287 21.3369 21.5785 23.2858 19.4333 23.2858C17.0933 23.2858 15.1432 21.3369 15.1432 19.1927C15.1435 16.8531 17.0933 14.9034 19.4333 14.9034Z" fill="#1C6787"/>
<path d="M22.3052 19.3419C22.3052 17.5882 20.9401 16.2224 19.3802 16.2224C17.6252 16.2224 16.2598 17.5882 16.2598 19.147C16.2598 20.9018 17.6252 22.2662 19.1851 22.2662C20.9401 22.2665 22.3052 20.9022 22.3052 19.3419ZM19.3802 17.0032C20.5499 17.0032 21.7202 17.9779 21.7202 19.1474C21.7202 20.5117 20.5499 21.6816 19.1851 21.4867C18.0151 21.4867 17.0402 20.5117 17.0402 19.1474C17.0402 17.9775 18.0155 17.0032 19.3802 17.0032Z" fill="#1C6787"/>
<path d="M22.3052 19.3419C22.3052 17.5882 20.9401 16.2224 19.3802 16.2224C17.6252 16.2224 16.2598 17.5882 16.2598 19.147C16.2598 20.9018 17.6252 22.2662 19.1851 22.2662C20.9401 22.2665 22.3052 20.9022 22.3052 19.3419ZM19.3802 17.0032C20.5499 17.0032 21.7202 17.9779 21.7202 19.1474C21.7202 20.5117 20.5499 21.6816 19.1851 21.4867C18.0151 21.4867 17.0402 20.5117 17.0402 19.1474C17.0402 17.9775 18.0155 17.0032 19.3802 17.0032Z" fill="#1C6787"/>
<path d="M22.3052 19.3419C22.3052 17.5882 20.9401 16.2224 19.3802 16.2224C17.6252 16.2224 16.2598 17.5882 16.2598 19.147C16.2598 20.9018 17.6252 22.2662 19.1851 22.2662C20.9401 22.2665 22.3052 20.9022 22.3052 19.3419ZM19.3802 17.0032C20.5499 17.0032 21.7202 17.9779 21.7202 19.1474C21.7202 20.5117 20.5499 21.6816 19.1851 21.4867C18.0151 21.4867 17.0402 20.5117 17.0402 19.1474C17.0402 17.9775 18.0155 17.0032 19.3802 17.0032Z" fill="#1C6787"/>
<path d="M8.66238 17.2234C11.1979 12.3492 15.0981 9.03518 20.3631 7.47526C20.753 7.47526 20.9481 7.0859 21.1432 6.88998C15.8779 7.28005 8.66238 13.3234 7.6875 17.8076C8.2725 17.6124 8.46762 17.4179 8.66238 17.2234Z" fill="#1C6787"/>
<path d="M8.66238 17.2234C11.1979 12.3492 15.0981 9.03518 20.3631 7.47526C20.753 7.47526 20.9481 7.0859 21.1432 6.88998C15.8779 7.28005 8.66238 13.3234 7.6875 17.8076C8.2725 17.6124 8.46762 17.4179 8.66238 17.2234Z" fill="#1C6787"/>
<path d="M8.66238 17.2234C11.1979 12.3492 15.0981 9.03518 20.3631 7.47526C20.753 7.47526 20.9481 7.0859 21.1432 6.88998C15.8779 7.28005 8.66238 13.3234 7.6875 17.8076C8.2725 17.6124 8.46762 17.4179 8.66238 17.2234Z" fill="#1C6787"/>
<path d="M58.3518 35.4531L66.1903 16.2347L74.0284 35.4531H75.6361L66.9943 14.7233H65.3859L56.7441 35.4531H58.3518Z" fill="#1C6787"/>
<path d="M58.3518 35.4531L66.1903 16.2347L74.0284 35.4531H75.6361L66.9943 14.7233H65.3859L56.7441 35.4531H58.3518Z" fill="#1C6787"/>
<path d="M58.3518 35.4531L66.1903 16.2347L74.0284 35.4531H75.6361L66.9943 14.7233H65.3859L56.7441 35.4531H58.3518Z" fill="#1C6787"/>
<path d="M85.3868 16.2509V33.9256H82.3402V35.4531H90.2627V33.9256H87.0111V14.7233H82.3398V16.2509H85.3868Z" fill="#1C6787"/>
<path d="M85.3868 16.2509V33.9256H82.3402V35.4531H90.2627V33.9256H87.0111V14.7233H82.3398V16.2509H85.3868Z" fill="#1C6787"/>
<path d="M85.3868 16.2509V33.9256H82.3402V35.4531H90.2627V33.9256H87.0111V14.7233H82.3398V16.2509H85.3868Z" fill="#1C6787"/>
<path d="M97.5762 22.8504V27.9367C97.5762 38.7721 112.202 38.7721 112.202 27.9367V22.8504C112.202 12.014 97.5762 12.014 97.5762 22.8504ZM98.9982 27.9367V22.8504C98.9982 14.0044 110.78 14.0044 110.78 22.8504V27.9367C110.78 36.7813 98.9982 36.7813 98.9982 27.9367Z" fill="#1C6787"/>
<path d="M97.5762 22.8504V27.9367C97.5762 38.7721 112.202 38.7721 112.202 27.9367V22.8504C112.202 12.014 97.5762 12.014 97.5762 22.8504ZM98.9982 27.9367V22.8504C98.9982 14.0044 110.78 14.0044 110.78 22.8504V27.9367C110.78 36.7813 98.9982 36.7813 98.9982 27.9367Z" fill="#1C6787"/>
<path d="M97.5762 22.8504V27.9367C97.5762 38.7721 112.202 38.7721 112.202 27.9367V22.8504C112.202 12.014 97.5762 12.014 97.5762 22.8504ZM98.9982 27.9367V22.8504C98.9982 14.0044 110.78 14.0044 110.78 22.8504V27.9367C110.78 36.7813 98.9982 36.7813 98.9982 27.9367Z" fill="#1C6787"/>
<path d="M119.514 14.7233V30.5757H121.342V14.7233H119.514Z" fill="#1C6787"/>
<path d="M119.514 14.7233V30.5757H121.342V14.7233H119.514Z" fill="#1C6787"/>
<path d="M119.514 14.7233V30.5757H121.342V14.7233H119.514Z" fill="#1C6787"/>
<path d="M122.241 33.6242H119.514V35.4532H132.311V33.6242H122.241Z" fill="#1C6787"/>
<path d="M122.241 33.6242H119.514V35.4532H132.311V33.6242H122.241Z" fill="#1C6787"/>
<path d="M122.241 33.6242H119.514V35.4532H132.311V33.6242H122.241Z" fill="#1C6787"/>
<path d="M137.188 24.8918C137.188 30.2799 140.504 35.4531 147.138 35.4531C153.775 35.4531 157.091 30.2799 157.298 24.8918C157.298 19.2863 153.98 14.1134 147.138 14.1134C140.504 14.1134 137.188 19.2863 137.188 24.8918ZM147.138 33.9439C141.541 33.9439 138.638 29.4175 138.638 24.8918C138.638 19.9331 141.541 15.6223 147.138 15.6223C152.945 15.6223 155.639 19.9331 155.639 24.8918C155.639 29.4175 152.945 33.9439 147.138 33.9439Z" fill="#1C6787"/>
<path d="M137.188 24.8918C137.188 30.2799 140.504 35.4531 147.138 35.4531C153.775 35.4531 157.091 30.2799 157.298 24.8918C157.298 19.2863 153.98 14.1134 147.138 14.1134C140.504 14.1134 137.188 19.2863 137.188 24.8918ZM147.138 33.9439C141.541 33.9439 138.638 29.4175 138.638 24.8918C138.638 19.9331 141.541 15.6223 147.138 15.6223C152.945 15.6223 155.639 19.9331 155.639 24.8918C155.639 29.4175 152.945 33.9439 147.138 33.9439Z" fill="#1C6787"/>
<path d="M137.188 24.8918C137.188 30.2799 140.504 35.4531 147.138 35.4531C153.775 35.4531 157.091 30.2799 157.298 24.8918C157.298 19.2863 153.98 14.1134 147.138 14.1134C140.504 14.1134 137.188 19.2863 137.188 24.8918ZM147.138 33.9439C141.541 33.9439 138.638 29.4175 138.638 24.8918C138.638 19.9331 141.541 15.6223 147.138 15.6223C152.945 15.6223 155.639 19.9331 155.639 24.8918C155.639 29.4175 152.945 33.9439 147.138 33.9439Z" fill="#1C6787"/>
<path d="M163.393 19.9374C163.393 23.2967 166.034 24.4159 168.877 25.0884V23.5201C166.643 22.8483 164.815 21.9528 164.815 19.937C164.815 17.2484 166.847 16.1285 168.877 15.6815V14.1131C166.034 14.5608 163.393 16.3533 163.393 19.9374Z" fill="#1C6787"/>
<path d="M163.393 19.9374C163.393 23.2967 166.034 24.4159 168.877 25.0884V23.5201C166.643 22.8483 164.815 21.9528 164.815 19.937C164.815 17.2484 166.847 16.1285 168.877 15.6815V14.1131C166.034 14.5608 163.393 16.3533 163.393 19.9374Z" fill="#1C6787"/>
<path d="M163.393 19.9374C163.393 23.2967 166.034 24.4159 168.877 25.0884V23.5201C166.643 22.8483 164.815 21.9528 164.815 19.937C164.815 17.2484 166.847 16.1285 168.877 15.6815V14.1131C166.034 14.5608 163.393 16.3533 163.393 19.9374Z" fill="#1C6787"/>
<path d="M172.533 24.4785V25.9853C174.769 26.6304 176.597 27.4911 176.597 29.8582C176.597 32.6555 174.566 33.7325 172.533 34.1623V35.4531C175.377 35.0233 178.019 33.5165 178.019 29.8582C178.018 26.4155 175.581 25.1246 172.533 24.4785Z" fill="#1C6787"/>
<path d="M172.533 24.4785V25.9853C174.769 26.6304 176.597 27.4911 176.597 29.8582C176.597 32.6555 174.566 33.7325 172.533 34.1623V35.4531C175.377 35.0233 178.019 33.5165 178.019 29.8582C178.018 26.4155 175.581 25.1246 172.533 24.4785Z" fill="#1C6787"/>
<path d="M172.533 24.4785V25.9853C174.769 26.6304 176.597 27.4911 176.597 29.8582C176.597 32.6555 174.566 33.7325 172.533 34.1623V35.4531C175.377 35.0233 178.019 33.5165 178.019 29.8582C178.018 26.4155 175.581 25.1246 172.533 24.4785Z" fill="#1C6787"/>
<path d="M172.533 15.6864C173.955 16.1348 175.377 16.8087 176.19 18.381L177.408 17.707C176.19 15.2369 174.362 14.3382 172.533 14.1134V15.6864Z" fill="#1C6787"/>
<path d="M172.533 15.6864C173.955 16.1348 175.377 16.8087 176.19 18.381L177.408 17.707C176.19 15.2369 174.362 14.3382 172.533 14.1134V15.6864Z" fill="#1C6787"/>
<path d="M172.533 15.6864C173.955 16.1348 175.377 16.8087 176.19 18.381L177.408 17.707C176.19 15.2369 174.362 14.3382 172.533 14.1134V15.6864Z" fill="#1C6787"/>
<path d="M168.876 33.9689C167.049 33.544 165.017 32.4842 164.205 30.5761L162.783 31.212C164.001 33.7564 166.439 35.0293 168.876 35.4535V33.9689Z" fill="#1C6787"/>
<path d="M168.876 33.9689C167.049 33.544 165.017 32.4842 164.205 30.5761L162.783 31.212C164.001 33.7564 166.439 35.0293 168.876 35.4535V33.9689Z" fill="#1C6787"/>
<path d="M168.876 33.9689C167.049 33.544 165.017 32.4842 164.205 30.5761L162.783 31.212C164.001 33.7564 166.439 35.0293 168.876 35.4535V33.9689Z" fill="#1C6787"/>
<path d="M186.069 11.8182L193.803 23.669H193.944L201.678 11.8182H203.609L195.005 24.9091L203.609 38H201.678L193.944 26.2258H193.803L186.069 38H184.139L192.819 24.9091L184.139 11.8182H186.069Z" fill="#1C6787"/>
</svg>
