<svg width="665" height="63" viewBox="0 0 665 63" fill="none" xmlns="http://www.w3.org/2000/svg">
<path d="M53.2617 11.543H14.4141V50.7422H53.2617V37.4414L67.6758 40.4297V47.7539C67.6758 53.418 66.6016 57.2852 64.4531 59.3555C62.3438 61.3867 58.3008 62.4023 52.3242 62.4023H15.3516C9.33594 62.4023 5.27344 61.3867 3.16406 59.3555C1.05469 57.2852 0 53.418 0 47.7539V15.1172C0 9.49219 1.05469 5.64453 3.16406 3.57422C5.27344 1.50391 9.33594 0.46875 15.3516 0.46875H52.3242C58.3008 0.46875 62.3438 1.50391 64.4531 3.57422C66.6016 5.64453 67.6758 9.49219 67.6758 15.1172V20.9766L53.2617 23.2617V11.543Z" fill="#FF1423"/>
<path d="M124.043 62.4023V12.2461H110.859V3.98438L137.109 0V62.4023H124.043Z" fill="#FF1423"/>
<path d="M198.633 51.2695H242.871V11.0156H198.633V51.2695ZM185.684 15.1172C185.684 9.45312 186.66 5.60547 188.613 3.57422C190.605 1.50391 194.336 0.46875 199.805 0.46875H241.699C247.207 0.46875 250.938 1.50391 252.891 3.57422C254.883 5.60547 255.879 9.45312 255.879 15.1172V47.7539C255.879 53.418 254.883 57.2852 252.891 59.3555C250.938 61.3867 247.207 62.4023 241.699 62.4023H199.805C194.336 62.4023 190.605 61.3867 188.613 59.3555C186.66 57.2852 185.684 53.418 185.684 47.7539V15.1172Z" fill="#FF1423"/>
<path d="M329.531 62.4023V0.46875H343.945V50.7422H390.41V62.4023H329.531Z" fill="black"/>
<path d="M425.332 37.6758H452.461L439.102 12.4805L425.332 37.6758ZM397.617 62.4023L432.656 0.46875H446.543L482.051 62.4023H465.879L458.438 48.8672H419.18L411.973 62.4023H397.617Z" fill="black"/>
<path d="M549.082 10.5469H516.211V25.3125H549.082C551.582 25.3125 553.301 24.9805 554.238 24.3164C555.215 23.6523 555.703 22.5 555.703 20.8594V15C555.703 13.3984 555.215 12.2656 554.238 11.6016C553.301 10.8984 551.582 10.5469 549.082 10.5469ZM549.082 35.5078H516.211V51.2695H549.082C551.816 51.2695 553.652 50.8594 554.59 50.0391C555.566 49.2188 556.055 47.7734 556.055 45.7031V41.0156C556.055 38.9453 555.566 37.5195 554.59 36.7383C553.652 35.918 551.816 35.5078 549.082 35.5078ZM502.031 62.4023V0.46875H555.117C560 0.46875 563.535 1.42578 565.723 3.33984C567.91 5.25391 569.004 8.30078 569.004 12.4805V20.0391C569.004 23.0078 568.086 25.3906 566.25 27.1875C564.414 28.9453 561.777 30.0391 558.34 30.4688C561.895 30.9375 564.629 32.207 566.543 34.2773C568.496 36.3477 569.473 39.043 569.473 42.3633V50.2734C569.473 54.375 567.969 57.4219 564.961 59.4141C561.953 61.4062 557.383 62.4023 551.25 62.4023H502.031Z" fill="black"/>
<path d="M650.977 11.3086H610.43V24.6094H649.043C655.098 24.6094 659.18 25.6445 661.289 27.7148C663.438 29.7852 664.512 33.6328 664.512 39.2578V47.7539C664.512 53.3789 663.438 57.2266 661.289 59.2969C659.18 61.3672 655.098 62.4023 649.043 62.4023H610.781C604.727 62.4023 600.625 61.3672 598.477 59.2969C596.367 57.2266 595.312 53.3789 595.312 47.7539V46.0547L608.027 43.418V50.7422H651.797V36.6211H613.184C607.168 36.6211 603.105 35.5859 600.996 33.5156C598.887 31.4453 597.832 27.5977 597.832 21.9727V15.1172C597.832 9.49219 598.887 5.64453 600.996 3.57422C603.105 1.50391 607.168 0.46875 613.184 0.46875H648.34C654.16 0.46875 658.164 1.46484 660.352 3.45703C662.578 5.44922 663.691 8.98438 663.691 14.0625V15.3516L650.977 18.3398V11.3086Z" fill="black"/>
</svg>
