<svg width="1920" height="742" viewBox="0 0 1920 742" fill="none" xmlns="http://www.w3.org/2000/svg">
<path d="M94.6685 0.229584C94.6685 0.229584 252.29 498.422 503.864 543.895C632.727 567.189 767.947 7.53809 898.837 60.3203C1040.4 117.408 553.846 675.445 1079.26 714.425C1424.6 740.048 1831.52 323.761 1929.74 199.993M1931.47 217.355C1837.17 336.172 1431.38 741.253 1087.38 712.541C574.649 669.747 1039.76 126.785 895.863 70.5363C851.983 53.3837 807.663 103.142 762.617 176.042C673.636 320.049 584.498 552.553 499.008 539.411C246.465 501.117 90.8979 29.8478 90.8979 29.8478M1933.19 234.716C1842.82 348.582 1438.18 742.501 1095.51 710.657C595.469 664.188 1039.13 136.141 892.891 80.7553C849.251 64.2267 805.192 111.987 759.793 182.22C669.72 321.564 579.69 545.77 494.153 534.937C240.642 503.825 87.1263 59.4752 87.1263 59.4752M1934.91 252.078C1848.47 360.992 1445 743.801 1103.64 708.773C616.301 658.766 1038.53 145.471 889.919 90.9712C846.525 75.0572 802.71 120.832 756.972 188.394C665.788 323.082 574.913 538.748 489.299 530.456C234.887 505.813 83.355 89.0995 83.355 89.0995M1936.63 269.439C1854.12 373.406 1451.84 745.153 1111.77 706.889C637.147 653.489 1037.94 154.778 886.949 101.19C843.804 85.8786 800.216 129.68 754.149 194.569C661.833 324.607 570.105 531.9 484.443 525.978C229.055 508.321 79.5845 118.724 79.5845 118.724M1938.36 286.801C1859.78 385.816 1458.7 746.56 1119.9 705.005C657.995 648.354 1037.37 164.059 883.974 111.406C841.088 96.6847 797.709 138.526 751.325 200.743C657.85 326.131 565.295 525.059 479.586 521.497C223.211 510.844 75.8104 148.345 75.8104 148.345M1940.08 304.163C1865.43 398.226 1465.57 748.029 1128.03 703.121C678.853 643.362 1036.81 173.313 881.007 121.622C838.382 107.481 795.191 147.368 748.506 206.918C653.849 327.655 560.485 518.223 474.733 517.016C217.362 513.392 72.0403 177.969 72.0403 177.969M1941.8 321.524C1871.08 410.637 1472.46 749.566 1136.15 701.237C699.712 638.519 1036.27 182.54 878.034 131.841C835.673 118.269 792.655 156.21 745.683 213.092C649.818 329.18 555.67 511.398 469.878 512.538C211.501 515.968 68.2708 207.594 68.2708 207.594M1943.53 338.886C1876.73 423.047 1479.35 751.174 1144.28 699.353C720.573 633.823 1035.75 191.735 875.064 142.057C832.974 129.044 790.109 165.049 742.864 219.266C645.762 330.701 550.854 504.581 465.025 508.057C205.636 518.562 64.5005 237.215 64.5005 237.215M1945.25 356.247C1882.38 435.457 1486.25 752.861 1152.41 697.469C741.426 629.277 1035.23 200.9 872.091 152.276C830.278 139.813 787.543 173.882 740.039 225.444C641.67 332.216 546.033 497.776 460.171 503.582C199.766 521.186 60.7288 266.842 60.7288 266.842M1946.97 373.609C1888.04 447.871 1493.16 754.634 1160.54 695.585C762.272 624.882 1034.73 210.031 869.118 162.492C827.581 150.57 784.956 182.709 737.216 231.615C637.546 333.716 541.214 490.972 455.314 499.098C193.895 523.829 56.9582 296.464 56.9582 296.464M1948.69 390.97C1893.69 460.281 1500.06 756.5 1168.67 693.701C783.108 620.638 1034.24 219.128 866.15 172.708C824.897 161.315 782.364 191.526 734.396 237.79C633.394 335.207 536.398 484.18 450.462 494.617C188.024 526.497 53.1881 326.085 53.1881 326.085M1950.42 408.332C1899.34 472.691 1506.95 758.467 1176.8 691.817C803.928 616.547 1033.76 228.192 863.178 182.927C822.208 172.056 779.749 200.338 731.575 243.967C629.207 336.679 531.58 477.397 445.607 490.142C182.154 529.196 49.4161 355.712 49.4161 355.712M1952.14 425.693C1904.99 485.102 1513.84 760.544 1184.92 689.933C824.728 612.607 1033.29 237.215 860.204 193.143C819.52 182.782 777.114 209.134 728.752 250.139C624.988 338.12 526.764 470.617 440.751 485.658C176.29 531.906 45.646 385.331 45.646 385.331M1953.86 443.055C1910.65 497.512 1520.71 762.745 1193.06 688.049C845.508 608.821 1032.84 246.205 857.236 203.362C816.841 193.505 774.468 217.917 725.931 256.316C620.734 339.543 521.95 463.849 435.897 481.183C170.429 534.651 41.8744 414.961 41.8744 414.961M1955.59 460.416C1916.3 509.922 1527.55 765.075 1201.18 686.165C866.25 605.182 1032.38 255.151 854.264 213.578C814.161 204.216 771.806 226.679 723.109 262.491C616.445 340.923 517.138 457.088 431.042 476.702C164.578 537.411 38.1025 444.582 38.1025 444.582M1957.31 477.781C1921.95 522.339 1534.35 767.558 1209.31 684.284C886.961 601.7 1031.94 264.061 851.293 223.797C811.482 214.924 769.128 235.429 720.287 268.665C612.127 342.266 512.325 450.329 426.189 472.221C158.738 540.192 34.3323 474.203 34.3323 474.203M1959.03 495.142C1927.6 534.749 1541.11 770.195 1217.44 682.401C907.628 598.365 1031.51 272.928 848.322 234.016C808.804 225.622 766.44 244.158 717.466 274.842C607.785 343.563 507.521 443.583 421.336 467.746C152.907 542.998 30.565 503.834 30.565 503.834M1960.75 512.504C1933.25 547.159 1547.81 773.01 1225.57 680.517C928.241 595.175 1031.07 281.748 845.347 244.232C806.124 236.308 763.736 252.859 714.639 281.017C603.41 344.805 502.713 436.84 416.475 463.265C147.077 545.819 26.7871 533.455 26.7871 533.455M1962.48 529.866C1938.9 559.57 1554.44 776.019 1233.7 678.633C948.804 592.132 1030.65 290.523 842.377 254.451C803.446 246.991 761.03 261.541 711.819 287.191C599.022 345.988 497.915 430.1 411.622 458.787C141.268 548.659 23.0167 563.08 23.0167 563.08M1964.2 547.227C1944.56 571.98 1560.99 779.24 1241.83 676.749C969.298 589.231 1030.22 299.254 839.408 264.666C800.772 257.662 758.322 270.192 709.001 293.366C594.623 347.107 493.126 423.367 406.771 454.306C135.475 551.511 19.2512 592.701 19.2512 592.701M1965.93 564.589C1950.21 584.39 1567.43 782.703 1249.96 674.865C989.719 586.468 1029.8 307.937 836.437 274.882C798.097 268.33 755.61 278.816 706.178 299.54C590.216 348.155 488.334 416.636 401.915 449.825C129.69 554.379 15.4779 622.325 15.4779 622.325M1967.65 581.95C1955.86 596.804 1573.74 786.425 1258.09 672.981C1010.05 583.837 1029.39 316.57 833.465 285.101C795.417 278.991 752.9 287.416 703.357 305.715C585.81 349.132 483.548 409.911 397.061 445.348C123.922 557.262 11.7061 651.949 11.7061 651.949M1969.37 599.312C1961.51 609.214 1579.89 790.442 1266.21 671.097C1030.28 581.332 1028.97 325.154 830.492 295.317C792.739 289.641 750.196 295.984 700.531 311.889C581.409 350.039 478.82 403.319 392.205 440.867C118.346 560.572 7.93563 681.571 7.93563 681.571M1971.09 616.673C1967.17 621.624 1585.85 794.779 1274.34 669.213C1050.41 578.944 1028.55 333.685 827.521 305.536C790.06 300.29 747.506 304.528 697.711 318.066C577.036 350.872 474.02 396.539 387.352 436.392C112.524 563.279 4.16537 711.198 4.16537 711.198M1972.81 634.035C1972.81 634.035 1591.58 799.478 1282.47 667.329C1031.68 560.111 1018.35 251.737 694.888 324.238C184.064 438.737 0.392578 740.819 0.392578 740.819" stroke="url(#paint0_linear_124_6326)" stroke-width="0.77638" stroke-miterlimit="10"/>
<defs>
<linearGradient id="paint0_linear_124_6326" x1="1952.16" y1="538.411" x2="-43.6168" y2="500.972" gradientUnits="userSpaceOnUse">
<stop stop-color="#8B959E"/>
<stop offset="0.49" stop-color="#C2C2C2"/>
<stop offset="1" stop-color="white"/>
</linearGradient>
</defs>
</svg>
